<?xml version="1.0" encoding="UTF-8"?>
<svg version="1.1" xmlns="http://www.w3.org/2000/svg" width="948" height="534">
<path d="M0 0 C312.84 0 625.68 0 948 0 C948 176.22 948 352.44 948 534 C635.16 534 322.32 534 0 534 C0 357.78 0 181.56 0 0 Z " fill="#303031" transform="translate(0,0)"/>
<path d="M0 0 C0.7418212 0.00262702 1.48364241 0.00525405 2.24794304 0.00796068 C3.42521298 0.00623006 3.42521298 0.00623006 4.62626614 0.00446448 C7.28883946 0.00179177 9.95135383 0.00632433 12.61392414 0.01075399 C14.52405002 0.01031703 16.43417584 0.00944096 18.34430134 0.00816 C23.63018644 0.00590434 28.9160515 0.00994764 34.20193405 0.01493578 C39.97569254 0.01928232 45.74945001 0.0178425 51.52320969 0.01711786 C62.74643482 0.01658477 73.969652 0.02121594 85.19287508 0.02761919 C98.16647243 0.03480048 111.14006496 0.03561291 124.11366474 0.03640402 C158.38942285 0.04166097 192.66517917 0.05562199 226.94093525 0.06850851 C303.48031025 0.08913351 380.01968525 0.10975851 458.87843525 0.13100851 C458.87843525 176.35100851 458.87843525 352.57100851 458.87843525 534.13100851 C305.42843525 534.13100851 151.97843525 534.13100851 -6.12156475 534.13100851 C-6.12156475 472.42100851 -6.12156475 410.71100851 -6.12156475 347.13100851 C-5.13156475 346.14100851 -4.14156475 345.15100851 -3.12156475 344.13100851 C-1.71312703 340.54589431 -1.64784936 336.92073164 -2.12156475 333.13100851 C-6.77235863 328.60591176 -12.94466661 327.58181021 -19.12156475 326.13100851 C-19.74656475 323.75600851 -19.74656475 323.75600851 -20.12156475 321.13100851 C-18.12156475 319.13100851 -18.12156475 319.13100851 -14.68406475 318.88100851 C-11.12156475 319.13100851 -11.12156475 319.13100851 -8.12156475 321.13100851 C-8.12156475 321.79100851 -8.12156475 322.45100851 -8.12156475 323.13100851 C-6.14156475 323.13100851 -4.16156475 323.13100851 -2.12156475 323.13100851 C-3.09751598 321.57386129 -3.09751598 321.57386129 -4.0931834 319.98525656 C-7.05447203 314.0116321 -6.64957239 308.00212161 -6.57566631 301.46303976 C-6.57443921 300.07035528 -6.57497794 298.67766831 -6.57712734 297.28498495 C-6.57802586 293.57452942 -6.55493941 289.86459586 -6.5266856 286.1542629 C-6.50380907 282.66537596 -6.50282794 279.17661232 -6.49998272 275.68764913 C-6.47904097 265.50203384 -6.42319593 255.31651447 -6.37156475 245.13100851 C-6.28906475 222.36100851 -6.20656475 199.59100851 -6.12156475 176.13100851 C52.61843525 176.13100851 111.35843525 176.13100851 171.87843525 176.13100851 C175.87843525 193.13100851 175.87843525 193.13100851 174.87843525 197.13100851 C172.37693886 198.1504748 170.09780808 198.89186882 167.50343525 199.56850851 C160.62687519 201.53454832 154.3029045 203.95880173 147.87843525 207.13100851 C147.05085713 207.50870382 146.223279 207.88639913 145.37062275 208.27553976 C131.94008162 214.56979023 119.14074075 224.18783002 112.92531025 237.96303976 C110.17787099 246.27711902 110.93236116 253.08663901 114.81593525 260.88100851 C124.55234739 277.00512642 141.00646176 285.96567436 157.87843525 293.13100851 C158.84136494 293.54221945 159.80429463 293.95343038 160.796404 294.37710226 C164.4723171 295.8952933 168.09530645 297.23827644 171.94093525 298.25600851 C172.91031025 298.54475851 173.87968525 298.83350851 174.87843525 299.13100851 C176.41267078 302.19947957 175.27151643 304.4652387 174.50343525 307.75600851 C172.29107306 317.28777459 171.69653157 326.18912487 171.69093525 335.94350851 C171.67868916 337.05532492 171.66644306 338.16714132 171.65382588 339.31264913 C171.63025634 352.73942544 173.6913873 365.69945009 182.68312275 376.24819601 C184.37151975 377.75649733 185.93379905 378.97397027 187.87843525 380.13100851 C188.76531025 380.66339132 189.65218525 381.19577413 190.56593525 381.74428976 C200.6293534 385.95715939 213.30369346 383.54742117 223.155779 379.80678976 C238.97127794 372.92774194 252.33052777 362.87385113 264.87843525 351.13100851 C268.52073956 352.67166137 270.86805947 354.89052081 273.69093525 357.63100851 C284.09342881 367.21734898 296.01392915 374.33473542 308.87843525 380.13100851 C309.62995869 380.49194601 310.38148213 380.85288351 311.155779 381.22475851 C319.221214 384.56858569 331.27682442 384.71064769 339.50343525 382.00600851 C349.7422082 376.31780131 354.02847569 368.31470217 357.52687275 357.24819601 C359.27762395 350.55871628 359.33077355 343.94208631 359.26954853 337.08095968 C359.25358604 334.96351043 359.26941181 332.84800644 359.2885915 330.73061788 C359.2989639 322.00553372 358.32152994 313.94988191 356.42384541 305.43056906 C355.63269986 300.64438641 355.63269986 300.64438641 356.87843525 298.13100851 C358.48219502 297.16128195 358.48219502 297.16128195 360.5698415 296.49038351 C361.3420705 296.22870382 362.11429951 295.96702413 362.90992939 295.69741476 C363.74516132 295.4280007 364.58039326 295.15858663 365.44093525 294.88100851 C378.55706496 290.34685441 390.90450742 284.75619999 401.87843525 276.13100851 C402.595154 275.5780007 403.31187275 275.02499288 404.05031025 274.45522726 C412.06942136 267.89824731 417.74127291 259.47019901 419.15968525 249.06850851 C419.57313902 240.24816153 415.24495616 232.81061432 409.87843525 226.13100851 C395.97484263 211.10783821 374.61381189 201.53973007 354.87843525 197.13100851 C355.16905085 195.21418219 355.46100389 193.29755865 355.75343525 191.38100851 C356.0116595 189.68410628 356.26981962 187.9871942 356.52736103 186.2901882 C356.79038135 184.67255836 357.07957982 183.05914791 357.38185322 181.44839132 C360.89271686 162.23800535 361.74877943 139.00046372 350.4448415 122.11538351 C346.21055968 116.75125592 340.72147913 112.94697222 333.88307392 111.79482687 C310.50540918 109.89440613 292.35671632 122.5066595 274.8667165 136.58803976 C271.82327704 139.07166003 271.82327704 139.07166003 269.233904 142.01772726 C266.87843525 144.13100851 266.87843525 144.13100851 264.85499775 144.21303976 C262.21510779 142.76788261 260.38881407 140.94371886 258.25343525 138.81850851 C247.08882388 128.42901034 234.23399837 120.3033669 219.87843525 115.13100851 C219.03409931 114.7945632 218.18976338 114.45811788 217.3198415 114.11147726 C208.86969444 111.07275442 198.43226493 110.36589628 189.94093525 113.56850851 C181.76393582 117.95014594 176.87167728 125.61178119 173.87843525 134.13100851 C171.07752507 148.02692299 171.07752507 148.02692299 170.87843525 174.13100851 C112.46843525 174.13100851 54.05843525 174.13100851 -6.12156475 174.13100851 C-6.14218975 145.60663351 -6.16281475 117.08225851 -6.18406475 87.69350851 C-6.19316875 78.67079611 -6.20227276 69.6480837 -6.21165264 60.35195578 C-6.21616924 49.37502706 -6.21616924 49.37502706 -6.21700848 44.24415243 C-6.21794405 40.64335684 -6.22170704 37.04257583 -6.22714031 33.44178427 C-6.2339663 28.85773131 -6.23606208 24.27369976 -6.23463703 19.68964219 C-6.2349353 18.00168552 -6.23693769 16.31372815 -6.24077988 14.62577582 C-6.24570723 12.35682689 -6.24457192 10.08796266 -6.24181927 7.81901205 C-6.24274106 6.54417235 -6.24366285 5.26933266 -6.24461258 3.95586145 C-6.03706927 -0.8087845 -4.29459258 0.01446269 0 0 Z " fill="#101011" transform="translate(489.1215647496283,-0.13100850954651833)"/>
<path d="M0 0 C8.37596719 5.21611956 15.73312595 11.28895137 22.6953125 18.26171875 C24.78472465 20.18815782 24.78472465 20.18815782 26.99609375 20.05078125 C29.76671461 18.59796057 31.69712173 16.68310544 33.9375 14.5 C48.48676872 0.79177224 67.848769 -12.20467413 88.3125 -12.4375 C89.06563477 -12.4478125 89.81876953 -12.458125 90.59472656 -12.46875 C98.47521816 -12.34316448 104.28570366 -9.55384081 110.078125 -4.19921875 C121.9938707 9.43607561 122.03485939 28.41788633 121.28515625 45.47363281 C120.50445733 55.12809792 118.29060623 64.60607763 116 74 C117.1446875 74.103125 118.289375 74.20625 119.46875 74.3125 C124.10427763 74.8990694 128.17479164 76.27450523 132.5 78 C133.27609619 78.30760254 134.05219238 78.61520508 134.85180664 78.93212891 C152.23983689 86.04003191 170.90770665 96.53621748 179.2734375 114.140625 C182.27848857 121.83097075 181.36077899 128.68090944 178.37890625 136.203125 C167.65704538 157.95058217 141.9733745 167.86560914 120.40625 175.2265625 C119.6121875 175.48179687 118.818125 175.73703125 118 176 C118.13277344 176.78503906 118.26554688 177.57007813 118.40234375 178.37890625 C118.66724609 179.95478516 118.66724609 179.95478516 118.9375 181.5625 C119.11152344 182.59503906 119.28554688 183.62757813 119.46484375 184.69140625 C120.77856192 192.81344487 121.25054005 200.69826596 121.29516602 208.91308594 C121.3066386 210.37705182 121.32701522 211.84097744 121.35668945 213.3046875 C121.63602381 227.13720026 119.70340532 242.23634105 110.18359375 253.06640625 C102.80310544 259.98471134 95.65680523 261.58427846 85.76831055 261.55615234 C63.84162217 260.70835513 42.69430448 244.09204506 28 229 C24.58791138 230.47882847 22.35018596 232.42469061 19.6875 235 C9.47038501 244.33193176 -2.38394529 251.39781788 -15 257 C-15.96035156 257.43441406 -16.92070313 257.86882812 -17.91015625 258.31640625 C-27.10010773 261.94435133 -38.3263889 262.9464699 -47.90625 260.15234375 C-56.26473021 255.93016625 -61.14889054 248.47835061 -64.95703125 240.19921875 C-67.84911219 231.32800417 -68.32823961 222.52207998 -68.25 213.25 C-68.24468262 212.11127441 -68.23936523 210.97254883 -68.23388672 209.79931641 C-68.10810673 198.60808136 -67.08555357 187.79943749 -64 177 C-64.65742187 176.8040625 -65.31484375 176.608125 -65.9921875 176.40625 C-87.8320798 169.5405928 -111.20102787 158.91840037 -124 139 C-124.4125 138.39929688 -124.825 137.79859375 -125.25 137.1796875 C-128.88120125 131.1529021 -129.00170493 124.84498366 -128 118 C-123.61624389 103.46729591 -110.64057168 93.18441766 -97.86816406 85.99951172 C-87.08908087 80.23244865 -75.71321839 76.38001116 -64 73 C-64.29053375 71.22898044 -64.5825087 69.45819731 -64.875 67.6875 C-65.11863281 66.20830078 -65.11863281 66.20830078 -65.3671875 64.69921875 C-65.71519856 62.66485782 -66.07791957 60.63214892 -66.50561523 58.61303711 C-68.04008786 51.10422278 -68.34883625 43.8399133 -68.3125 36.1875 C-68.30404053 34.3324585 -68.30404053 34.3324585 -68.29541016 32.43994141 C-68.10992471 18.51751423 -66.75130639 6.25139067 -56.8203125 -4.3203125 C-40.19208686 -19.94076688 -17.14911865 -9.98599198 0 0 Z " fill="#00D4F9" transform="translate(728,123)"/>
<path d="M0 0 C58.74 0 117.48 0 178 0 C182 17 182 17 181 21 C178.49850361 22.01946629 176.21937283 22.76086031 173.625 23.4375 C166.74843994 25.40353981 160.42446925 27.82779322 154 31 C153.17242188 31.37769531 152.34484375 31.75539062 151.4921875 32.14453125 C138.06164637 38.43878172 125.2623055 48.05682151 119.046875 61.83203125 C116.29943574 70.14611051 117.05392591 76.9556305 120.9375 84.75 C130.67391214 100.87411791 147.12802651 109.83466585 164 117 C164.96292969 117.41121094 165.92585937 117.82242188 166.91796875 118.24609375 C170.59388185 119.76428479 174.2168712 121.10726793 178.0625 122.125 C179.031875 122.41375 180.00125 122.7025 181 123 C182.53423553 126.06847106 181.39308118 128.33423019 180.625 131.625 C178.80211366 139.47874397 177.84099624 146.94656938 177.90234375 155 C177.90335083 155.64066406 177.90435791 156.28132812 177.90539551 156.94140625 C177.91055785 159.29431717 177.92448057 161.64711835 177.9375 164 C177.94947339 166.85416354 177.96016157 169.70833176 177.97094727 172.5625 C177.97646597 173.98046883 177.98200337 175.39843759 177.98756409 176.81640625 C177.99166794 177.86699219 177.99577179 178.91757812 178 180 C143.64852623 181.33316999 109.27972833 181.12071192 74.90949225 181.07202661 C66.72020917 181.06063729 58.53092503 181.05529781 50.34163594 181.05032361 C33.56108134 181.04000273 16.78054276 181.02253214 0 181 C-0.08121924 179.39667209 -0.13929134 177.79215974 -0.1875 176.1875 C-0.22230469 175.29417969 -0.25710938 174.40085937 -0.29296875 173.48046875 C0.05402657 170.54257508 0.78830772 169.85624173 3 168 C4.40843772 164.4148858 4.47371539 160.78972313 4 157 C-0.65079388 152.47490325 -6.82310186 151.4508017 -13 150 C-13.625 147.625 -13.625 147.625 -14 145 C-12 143 -12 143 -8.5625 142.75 C-5 143 -5 143 -2 145 C-2 145.66 -2 146.32 -2 147 C-0.02 147 1.96 147 4 147 C3.34936584 145.96190186 2.69873169 144.92380371 2.02838135 143.85424805 C-0.93290728 137.88062359 -0.52800764 131.8711131 -0.45410156 125.33203125 C-0.45287446 123.93934677 -0.45341319 122.5466598 -0.45556259 121.15397644 C-0.45646111 117.44352091 -0.43337466 113.73358735 -0.40512085 110.02325439 C-0.38224432 106.53436746 -0.38126319 103.04560381 -0.37841797 99.55664062 C-0.35747622 89.37102533 -0.30163118 79.18550596 -0.25 69 C-0.1675 46.23 -0.085 23.46 0 0 Z " fill="#1A1B1B" transform="translate(483,176)"/>
<path d="M0 0 C0.93323813 0.00359811 1.86647627 0.00719622 2.82799435 0.01090336 C3.81933345 0.01078282 4.81067255 0.01066229 5.83205223 0.0105381 C9.05720315 0.01128752 12.28229706 0.01891705 15.50743771 0.0267725 C17.49209725 0.02824183 19.47675719 0.02926259 21.4614172 0.02982426 C28.84004451 0.03507817 36.21866353 0.04903924 43.59728146 0.06192875 C60.07665646 0.08255375 76.55603146 0.10317875 93.53478146 0.12442875 C93.53478146 58.86442875 93.53478146 117.60442875 93.53478146 178.12442875 C60.86478146 178.12442875 28.19478146 178.12442875 -5.46521854 178.12442875 C-5.79521854 166.24442875 -6.12521854 154.36442875 -6.46521854 142.12442875 C-7.45521854 136.84442875 -8.44521854 131.56442875 -9.46521854 126.12442875 C-8.46521854 122.12442875 -8.46521854 122.12442875 -6.86145878 121.15470219 C-6.17253544 120.9333057 -5.4836121 120.71190922 -4.77381229 120.48380375 C-4.00158329 120.22212406 -3.22935429 119.96044437 -2.4337244 119.690835 C-1.59849247 119.42142094 -0.76326054 119.15200687 0.09728146 118.87442875 C13.21341117 114.34027465 25.56085362 108.74962023 36.53478146 100.12442875 C37.25150021 99.57142094 37.96821896 99.01841312 38.70665646 98.4486475 C46.72576756 91.89166755 52.39761912 83.46361925 53.81603146 73.06192875 C54.22948522 64.24158177 49.90130236 56.80403456 44.53478146 50.12442875 C30.63118884 35.10125845 9.27015809 25.53315031 -10.46521854 21.12442875 C-10.33244511 20.26720219 -10.19967167 19.40997562 -10.06287479 18.5267725 C-9.79797245 16.81167484 -9.79797245 16.81167484 -9.52771854 15.06192875 C-9.34467167 13.87985844 -9.16162479 12.69778812 -8.97303104 11.4798975 C-8.58963306 8.94652158 -8.23293094 6.41493378 -7.90271854 3.87442875 C-7.09516279 -1.20163598 -4.6403378 0.00760026 0 0 Z " fill="#030404" transform="translate(854.4652185440063,175.87557125091553)"/>
<path d="M0 0 C0.92123154 -0.00637985 1.84246307 -0.0127597 2.79161072 -0.01933289 C3.77504959 -0.02044571 4.75848846 -0.02155853 5.77172852 -0.02270508 C7.30459251 -0.02769768 7.30459251 -0.02769768 8.86842346 -0.03279114 C11.02604727 -0.03784552 13.18367887 -0.04019992 15.34130859 -0.04003906 C18.63530382 -0.04222615 21.92896434 -0.06039948 25.22290039 -0.0793457 C27.32250862 -0.08227984 29.42211844 -0.0842645 31.52172852 -0.08520508 C32.50314316 -0.09239059 33.4845578 -0.09957611 34.49571228 -0.10697937 C39.43647181 -0.09053502 43.62921875 0.0602074 48.21313477 2.14526367 C49.97875977 4.14916992 49.97875977 4.14916992 51.46313477 6.70776367 C52.04708008 7.69260742 52.63102539 8.67745117 53.23266602 9.69213867 C53.8862207 10.83166992 54.53977539 11.97120117 55.21313477 13.14526367 C56.00652832 14.48509826 56.80221862 15.82357471 57.59985352 17.16088867 C59.31805784 20.04744541 61.01857345 22.94334264 62.70532227 25.84838867 C64.30693812 28.60638355 65.93536257 31.34427837 67.59594727 34.06713867 C68.3226314 35.28060751 69.04920018 36.49414543 69.77563477 37.70776367 C70.41629883 38.76092773 71.05696289 39.8140918 71.71704102 40.89916992 C73.48365289 44.73221031 74.72404681 47.93219021 74.21313477 52.14526367 C72.59454947 56.04823 70.41912178 59.55002863 68.21313477 63.14526367 C67.15551536 65.03526271 66.10599177 66.92981531 65.06469727 68.82885742 C50.51675816 94.84164027 50.51675816 94.84164027 46.21313477 99.14526367 C44.55245839 99.26487962 42.88674736 99.31540625 41.22192383 99.33813477 C39.6245639 99.36222916 39.6245639 99.36222916 37.99493408 99.3868103 C33.11031593 99.43111263 28.22583646 99.47233756 23.34106445 99.49536133 C20.76284761 99.51191749 18.1846766 99.53920259 15.60668945 99.57739258 C11.89713629 99.63209874 8.18866177 99.65402846 4.47875977 99.66870117 C3.32651917 99.69137054 2.17427856 99.71403992 0.98712158 99.73739624 C-7.01393389 99.71623338 -7.01393389 99.71623338 -10.89453125 96.84960938 C-11.51900146 95.95717529 -12.14347168 95.06474121 -12.78686523 94.14526367 C-13.25503662 93.50693604 -13.72320801 92.8686084 -14.20556641 92.2109375 C-14.57657471 91.59758545 -14.94758301 90.9842334 -15.32983398 90.35229492 C-15.9737207 89.29606934 -15.9737207 89.29606934 -16.63061523 88.21850586 C-17.07405273 87.47246094 -17.51749023 86.72641602 -17.97436523 85.95776367 C-18.44487305 85.17691406 -18.91538086 84.39606445 -19.40014648 83.59155273 C-24.038383 75.83738861 -28.51733081 67.98045266 -32.77514648 60.01049805 C-33.68244212 58.33778118 -34.65278142 56.69962393 -35.63061523 55.06713867 C-37.41027366 50.56989374 -36.70953106 47.33955538 -34.85473633 42.9284668 C-33.62832296 40.37669375 -32.32057725 37.88589459 -30.97436523 35.39526367 C-30.4909668 34.48655518 -30.00756836 33.57784668 -29.50952148 32.64160156 C-24.4107312 23.2014855 -18.81881049 14.02007681 -12.78686523 5.14526367 C-12.3427832 4.42733643 -11.89870117 3.70940918 -11.44116211 2.96972656 C-8.48461731 -0.29093744 -4.19256152 0.01983395 0 0 Z " fill="#0D1011" transform="translate(735.786865234375,197.854736328125)"/>
<path d="M0 0 C43.46776316 0 43.46776316 0 52.3046875 8.23046875 C57.93014302 14.10219997 58.35742454 20.07711924 58.28125 27.89453125 C57.62518457 35.13858703 54.06373118 40.93626882 49 46 C45.6875 47.875 45.6875 47.875 43 49 C43.58394531 49.91265625 43.58394531 49.91265625 44.1796875 50.84375 C46.98019334 55.23163933 49.77141649 59.62356175 52.515625 64.046875 C52.94762207 64.74232422 53.37961914 65.43777344 53.82470703 66.15429688 C54.67141731 67.51895348 55.51624251 68.88478208 56.35888672 70.25195312 C58.4031355 73.54450376 60.50937423 76.73542295 62.8046875 79.859375 C65 83 65 83 65 85 C59.06 85 53.12 85 47 85 C46.32453125 83.75992188 45.6490625 82.51984375 44.953125 81.2421875 C41.13112956 74.36097851 36.95508493 67.69598775 32.8203125 61 C32.21445313 60.01257813 31.60859375 59.02515625 30.984375 58.0078125 C30.43491211 57.11723145 29.88544922 56.22665039 29.31933594 55.30908203 C28 53 28 53 27 50 C22.71 50 18.42 50 14 50 C14 61.55 14 73.1 14 85 C9.38 85 4.76 85 0 85 C0 56.95 0 28.9 0 0 Z " fill="#FBE442" transform="translate(63,176)"/>
<path d="M0 0 C0.24645264 0.66418945 0.49290527 1.32837891 0.74682617 2.01269531 C1.8912813 5.09270851 3.03926876 8.17139261 4.1875 11.25 C4.59661621 12.35142334 5.00573242 13.45284668 5.42724609 14.58764648 C7.83335497 21.02601267 10.32765527 27.34446335 13.3203125 33.53515625 C14.9851138 39.57245293 12.37842797 44.92439384 9.8125 50.3125 C5.83525718 58.98710214 2.87221552 67.90991131 0 77 C-6.30672954 76.51153761 -11.45231307 75.43275022 -17.25 72.9375 C-17.98162354 72.62804443 -18.71324707 72.31858887 -19.46704102 71.99975586 C-32.77185695 66.20074126 -48.66006913 57.70543879 -55 44 C-56.26220974 39.66832566 -56.41078074 36.31449836 -55.0625 32 C-44.22178385 16.2316856 -19.83709696 0 0 0 Z " fill="#141717" transform="translate(669,209)"/>
<path d="M0 0 C1.35809213 0.18345156 2.71615941 0.3670871 4.07421875 0.55078125 C4.95956299 0.66993896 5.84490723 0.78909668 6.75708008 0.91186523 C8.73055037 1.18166985 10.70304883 1.45866931 12.67456055 1.74243164 C17.72224825 2.46192298 22.73332949 3.08604758 27.8203125 3.4453125 C41.23774785 4.54205428 41.23774785 4.54205428 46.03125 8.5078125 C48.31396836 11.5644662 50.15785242 14.66289451 52 18 C53.2941063 19.73823745 54.62657414 21.44872975 56 23.125 C56.639375 23.9190625 57.27875 24.713125 57.9375 25.53125 C61.50204876 29.79790685 65.23817168 33.90727012 69 38 C56.42558466 50.98004164 37.57151075 66.37481805 18.78125 68.3359375 C13.92509643 68.39374885 10.02944111 68.42280617 5.5 66.5625 C-3.38108037 57.45939262 -4.35977394 46.41468589 -4.25 34.25 C-4.24468262 33.19031006 -4.23936523 32.13062012 -4.23388672 31.03881836 C-4.10398093 20.31830236 -2.34147913 10.43322878 0 0 Z " fill="#111313" transform="translate(677,303)"/>
<path d="M0 0 C3.74033623 9.88517433 4.34217907 19.90422538 4.3125 30.375 C4.32861328 31.50421875 4.34472656 32.6334375 4.36132812 33.796875 C4.36813548 45.6961391 2.99217295 56.28150306 -5.0625 65.3125 C-9.19886152 68.91513745 -14.24481362 68.39188933 -19.4609375 68.33984375 C-34.0828778 66.93575014 -47.86789781 55.79019021 -59 47 C-59.75023437 46.41734375 -60.50046875 45.8346875 -61.2734375 45.234375 C-65.57871594 41.75500712 -65.57871594 41.75500712 -66.99609375 39.21484375 C-67.00260833 35.52107406 -64.28019778 33.42642038 -61.875 30.875 C-58.14570512 26.85343551 -54.86089204 22.97089493 -52.1484375 18.18359375 C-45.18470455 6.2236209 -45.18470455 6.2236209 -39.25878906 3.94677734 C-33.18883931 2.57541833 -27.13536527 2.2888814 -20.93188477 2.15576172 C-17.00186067 1.94697203 -13.24552395 1.23114521 -9.39770508 0.43212891 C-6.19975649 -0.14422472 -3.23915449 -0.14396242 0 0 Z " fill="#0A0D0D" transform="translate(832,303)"/>
<path d="M0 0 C14.37995647 6.59562658 26.32525254 15.34811561 38 26 C36.51260196 29.41636738 34.54989523 31.73734308 32 34.4375 C23.01819587 43.93564313 23.01819587 43.93564313 16.15869141 54.86816406 C14.98894984 57.18595184 14.08244791 58.41501998 12 60 C6.68821037 61.44771849 1.34657956 61.90403161 -4.125 62.375 C-6.34376718 62.5968286 -8.56149545 62.82744014 -10.77926636 63.05899048 C-12.78521927 63.26348831 -14.79323333 63.44745839 -16.80126953 63.63037109 C-20.01443311 63.89079044 -20.01443311 63.89079044 -23 65 C-25.33299825 65.03954234 -27.66708189 65.04401732 -30 65 C-34.1732981 48.49053771 -37.41278633 27.64045168 -32 11 C-31.74347656 10.20335937 -31.48695313 9.40671875 -31.22265625 8.5859375 C-29.45344939 3.92373574 -27.41332329 0.46637378 -23.109375 -2.19140625 C-15.63900774 -5.05504703 -7.10832383 -2.98797012 0 0 Z " fill="#111313" transform="translate(707,127)"/>
<path d="M0 0 C6.33926796 4.97494725 9.04813546 13.11420679 10.3515625 20.828125 C11.98931615 36.90607246 9.74441609 52.19319658 6.671875 67.97265625 C5.98005127 67.84568359 5.28822754 67.71871094 4.57543945 67.58789062 C-0.6065266 66.64063521 -5.7891284 65.70290782 -10.98486328 64.83398438 C-12.47779146 64.58375406 -13.96960029 64.32678731 -15.46044922 64.06445312 C-19.10462842 63.43700867 -22.61813273 62.95447751 -26.31640625 62.72265625 C-35.11002531 62.11815397 -35.11002531 62.11815397 -38.6875 58.75390625 C-40.74766739 55.91119466 -42.5351801 52.98966857 -44.328125 49.97265625 C-45.60793645 48.26023248 -46.92020389 46.57152753 -48.265625 44.91015625 C-48.91402344 44.10707031 -49.56242188 43.30398437 -50.23046875 42.4765625 C-53.81142269 38.20209047 -57.55507173 34.07759846 -61.328125 29.97265625 C-59.76729093 25.88974273 -56.85354916 23.50490235 -53.578125 20.78515625 C-53.00465332 20.3061084 -52.43118164 19.82706055 -51.84033203 19.33349609 C-42.52115488 11.70687755 -32.51421521 5.50165863 -21.328125 0.97265625 C-20.54308594 0.61042969 -19.75804687 0.24820313 -18.94921875 -0.125 C-13.16834386 -2.11513726 -5.65775761 -2.49662794 0 0 Z " fill="#0A0C0D" transform="translate(825.328125,125.02734375)"/>
<path d="M0 0 C18.83954515 3.36420449 40.54620634 13.07857264 52.8203125 28.25 C55.63776286 32.68402025 56.80478869 36.52384385 55.83203125 41.7421875 C54.1755776 46.23716501 51.2477854 49.54843198 48 53 C47.44570313 53.59554687 46.89140625 54.19109375 46.3203125 54.8046875 C37.21299539 63.58818889 24.81005204 68.89942398 13.25 73.625 C12.39245117 73.98005615 11.53490234 74.3351123 10.65136719 74.70092773 C9.84344727 75.01876221 9.03552734 75.33659668 8.203125 75.6640625 C7.13046387 76.08872803 7.13046387 76.08872803 6.03613281 76.52197266 C3.63185688 77.08642976 2.28418175 76.91293048 0 76 C-1.0546875 73.8046875 -1.0546875 73.8046875 -1.875 70.875 C-3.3775227 65.91194272 -5.05783569 61.11492065 -7 56.3125 C-7.25515381 55.6736084 -7.51030762 55.0347168 -7.77319336 54.37646484 C-9.46402398 50.18649879 -11.31388961 46.11503133 -13.43359375 42.125 C-14.92259716 36.53866996 -12.47474984 31.27615913 -10.1875 26.25 C-7.51191148 20.25174857 -5.18675497 14.1909463 -3 8 C-2.01065721 5.32919908 -1.00556612 2.66475021 0 0 Z " fill="#060909" transform="translate(840,209)"/>
<path d="M0 0 C1.6969031 1.44424549 3.33872984 2.91725934 4.94140625 4.46484375 C5.27140625 1.82484375 5.60140625 -0.81515625 5.94140625 -3.53515625 C10.56140625 -3.53515625 15.18140625 -3.53515625 19.94140625 -3.53515625 C19.94140625 16.26484375 19.94140625 36.06484375 19.94140625 56.46484375 C15.32140625 56.46484375 10.70140625 56.46484375 5.94140625 56.46484375 C5.44640625 52.50484375 5.44640625 52.50484375 4.94140625 48.46484375 C4.51730469 48.86316406 4.09320313 49.26148438 3.65625 49.671875 C-2.85794024 55.55612157 -8.49919922 58.05255761 -17.359375 57.73828125 C-25.74128731 56.88917291 -31.52824998 52.73256669 -37.05859375 46.46484375 C-42.36245626 38.06181217 -44.04567464 30.34713038 -43.05859375 20.46484375 C-40.52785287 10.18814364 -35.93388679 3.10752543 -26.93359375 -2.47265625 C-17.83837871 -5.83393137 -7.95900696 -5.93527464 0 0 Z " fill="#FAE342" transform="translate(246.05859375,204.53515625)"/>
<path d="M0 0 C7.70700085 4.25913205 11.24869305 9.74607914 14 18 C14 22.62 14 27.24 14 32 C-0.85 32 -15.7 32 -31 32 C-27.53538487 40.85397319 -27.53538487 40.85397319 -21 45 C-17.59138187 45.47293435 -17.59138187 45.47293435 -14 45.375 C-12.80375 45.38273437 -11.6075 45.39046875 -10.375 45.3984375 C-6.72369761 44.96738097 -4.87080786 44.26588763 -2 42 C-1.34 40.68 -0.68 39.36 0 38 C4.62 38 9.24 38 14 38 C11.47718647 46.45142531 8.93981685 51.50576405 1 56 C-6.53599693 59.50581169 -14.75350658 60.48650647 -22.8125 58.203125 C-25.28231013 57.2475437 -27.63325056 56.1855621 -30 55 C-31.36125 54.38125 -31.36125 54.38125 -32.75 53.75 C-39.66222012 48.37382879 -44.24627894 39.91967437 -45.34765625 31.26953125 C-45.66593143 21.45835302 -43.27953903 13.53283635 -36.96484375 5.9765625 C-27.08928281 -3.95789841 -12.60556196 -6.15448025 0 0 Z " fill="#FAE442" transform="translate(180,203)"/>
<path d="M0 0 C6.23643517 3.14815932 10.22325441 6.97676631 13.78515625 12.9375 C14.71328125 14.29875 14.71328125 14.29875 15.66015625 15.6875 C18.07715454 22.66993949 17.70207765 30.44448588 14.6953125 37.19921875 C10.77083153 44.6944721 5.63061333 49.66471826 -2.21484375 52.9375 C-4.99685122 53.39706569 -7.71124956 53.46253751 -10.52734375 53.4375 C-11.28063965 53.43105469 -12.03393555 53.42460937 -12.81005859 53.41796875 C-21.31593458 53.13866584 -26.30145731 50.20967072 -32.08984375 44.0625 C-38.47931441 36.05713072 -39.27220885 29.09995347 -38.21484375 18.9375 C-37.31702615 15.88202397 -36.06494459 13.51679368 -34.21484375 10.9375 C-33.82941406 10.38578125 -33.44398438 9.8340625 -33.046875 9.265625 C-25.13025996 -1.08490081 -12.12638734 -4.00774891 0 0 Z " fill="#00D6FB" transform="translate(765.21484375,221.0625)"/>
<path d="M0 0 C5.51503939 3.7383824 9.25557574 7.93939644 12 14 C12 15.32 12 16.64 12 18 C9.73078464 18.13489391 7.4592933 18.23193995 5.1875 18.3125 C3.29064453 18.39951172 3.29064453 18.39951172 1.35546875 18.48828125 C0.24816406 18.32714844 -0.85914063 18.16601562 -2 18 C-3.75390625 15.59375 -3.75390625 15.59375 -5 13 C-10.19675366 9.98588288 -15.02709082 9.12591573 -21 10 C-23.87146994 11.36997157 -23.87146994 11.36997157 -26 13 C-26.66 13 -27.32 13 -28 13 C-28 13.66 -28 14.32 -28 15 C-28.66 15 -29.32 15 -30 15 C-32.58141787 20.80819021 -32.67743586 26.76587502 -32 33 C-29.73152656 37.99064157 -26.00057328 41.70561932 -21 44 C-15.39329149 45.0353852 -10.75019477 44.23876916 -6 41 C-5.319375 39.948125 -4.63875 38.89625 -3.9375 37.8125 C-2.765625 36.23046875 -2.765625 36.23046875 -1 35 C3.37494 34.47180602 7.61469174 34.65328456 12 35 C12.10916018 40.89464997 10.81159313 43.76350726 6.9375 48.25 C1.35358719 54.03841917 -4.597644 57.59868213 -12.734375 58.203125 C-22.0273469 58.34757534 -28.60051379 56.82512744 -36 51 C-42.44545875 44.6651929 -46.31266071 38.64590273 -46.51928711 29.49145508 C-46.51292236 28.7311499 -46.50655762 27.97084473 -46.5 27.1875 C-46.49427979 26.39432373 -46.48855957 25.60114746 -46.48266602 24.78393555 C-46.22192656 16.20587081 -43.45562143 10.43553651 -37.6875 4.125 C-27.03384195 -5.73777514 -12.69146062 -6.53802517 0 0 Z " fill="#FAE342" transform="translate(324,204)"/>
<path d="M0 0 C4.62 0 9.24 0 14 0 C14 5.28 14 10.56 14 16 C19.28 16 24.56 16 30 16 C30 20.29 30 24.58 30 29 C24.72 29 19.44 29 14 29 C14.08691691 33.39679693 14.19381142 37.79154375 14.3125 42.1875 C14.33505859 43.43337891 14.35761719 44.67925781 14.38085938 45.96289062 C14.4340332 47.7659668 14.4340332 47.7659668 14.48828125 49.60546875 C14.51446533 50.71043701 14.54064941 51.81540527 14.56762695 52.95385742 C15.08876863 56.62539032 16.35537551 59.35537551 19 62 C20.84891946 62.23363881 22.70488031 62.41303635 24.5625 62.5625 C26.356875 62.706875 28.15125 62.85125 30 63 C30 67.29 30 71.58 30 76 C13.75331922 76.75274197 13.75331922 76.75274197 8 72 C3.29196278 67.18496194 0.31093478 62.23973986 -0.34057617 55.45141602 C-0.32486572 54.23123779 -0.30915527 53.01105957 -0.29296875 51.75390625 C-0.28872391 51.09792953 -0.28447906 50.44195282 -0.28010559 49.76609802 C-0.26348779 47.69779089 -0.22587238 45.63050599 -0.1875 43.5625 C-0.17243111 42.14910275 -0.15874659 40.73569002 -0.14648438 39.32226562 C-0.11364104 35.88118565 -0.06198015 32.44069281 0 29 C-3.63 29 -7.26 29 -11 29 C-11 24.71 -11 20.42 -11 16 C-7.37 16 -3.74 16 0 16 C0 10.72 0 5.44 0 0 Z " fill="#F7E142" transform="translate(353,185)"/>
<path d="M0 0 C1.98 0 3.96 0 6 0 C6 15.18 6 30.36 6 46 C4.02 46 2.04 46 0 46 C-0.33 44.68 -0.66 43.36 -1 42 C-1.763125 42.639375 -2.52625 43.27875 -3.3125 43.9375 C-7.25556332 46.96357185 -10.73061533 47.52007259 -15.578125 47.48046875 C-20.16569394 46.57035427 -23.02880429 43.44339063 -26 40 C-28.85467722 35.59903929 -28.63567465 30.08539722 -28 25 C-26.67771714 21.03315141 -24.43864538 18.40731357 -21.375 15.5625 C-16.81650677 13.45208647 -12.94550287 13.29821746 -8 14 C-4.97713116 15.38548155 -3.33128575 16.66871425 -1 19 C-0.67 12.73 -0.34 6.46 0 0 Z " fill="#F7F7F7" transform="translate(196,300)"/>
<path d="M0 0 C0.99 0.33 1.98 0.66 3 1 C2.67 58.09 2.34 115.18 2 174 C60.74 173.67 119.48 173.34 180 173 C180 173.99 180 174.98 180 176 C121.26 176 62.52 176 2 176 C2.33 222.2 2.66 268.4 3 316 C2.01 315.67 1.02 315.34 0 315 C0 269.13 0 223.26 0 176 C-6.93 176 -13.86 176 -21 176 C-26.34753141 175.71288422 -31.66607306 175.42248926 -37 175 C-37 174.67 -37 174.34 -37 174 C-24.79 174 -12.58 174 0 174 C0 116.58 0 59.16 0 0 Z " fill="#292929" transform="translate(481,0)"/>
<path d="M0 0 C4.61679712 2.87702528 7.95857304 5.47273794 9.45703125 10.8671875 C10.06537292 16.52944458 10.28701635 21.20721731 7.70703125 26.3671875 C6.96453125 27.1921875 6.22203125 28.0171875 5.45703125 28.8671875 C4.83828125 29.6096875 4.21953125 30.3521875 3.58203125 31.1171875 C-0.76932736 34.70065929 -5.74105412 35.40630598 -11.23828125 35.23046875 C-15.4793315 34.56196422 -18.48054345 32.84972345 -21.54296875 29.8671875 C-25.20796376 24.60098108 -27.62484258 19.35843047 -26.54296875 12.8671875 C-24.29721833 6.54802808 -21.20856274 2.96181264 -15.35546875 -0.3828125 C-10.05941096 -1.79509458 -5.10803778 -2.27546998 0 0 Z " fill="#353432" transform="translate(242.54296875,214.1328125)"/>
<path d="M0 0 C2.54878922 1.17244304 4.06297378 2.06297378 6 4 C6.33 2.68 6.66 1.36 7 0 C9.31 0 11.62 0 14 0 C14 10.89 14 21.78 14 33 C11.69 33 9.38 33 7 33 C6.67 31.68 6.34 30.36 6 29 C5.175 29.66 4.35 30.32 3.5 31 C-0.19464094 33.44280965 -3.68510759 33.68437365 -8 33 C-13.1877861 31.35720107 -16.0255688 29.576048 -19 25 C-21.01138947 18.9658316 -21.07756502 12.23494967 -18.3125 6.5 C-17.549375 5.675 -16.78625 4.85 -16 4 C-14.9790625 2.824375 -14.9790625 2.824375 -13.9375 1.625 C-9.4193806 -0.8743852 -5.04956534 -0.65204597 0 0 Z " fill="#EDEDEE" transform="translate(229,314)"/>
<path d="M0 0 C2.48050929 1.16432069 4.09425952 2.09425952 6 4 C6.33 2.68 6.66 1.36 7 0 C9.31 0 11.62 0 14 0 C14 10.89 14 21.78 14 33 C11.69 33 9.38 33 7 33 C6.67 31.68 6.34 30.36 6 29 C5.195625 29.66 4.39125 30.32 3.5625 31 C-0.49383531 33.678712 -4.28206084 33.7972824 -9 33 C-13.2807374 31.58148114 -15.60059711 29.49157279 -18.4375 26 C-20.9444196 20.97530833 -20.74320523 15.45269957 -20 10 C-15.93941097 1.25411593 -9.13382722 -1.3091819 0 0 Z " fill="#EDEDED" transform="translate(428,314)"/>
<path d="M0 0 C1.98 0 3.96 0 6 0 C6.33 0.99 6.66 1.98 7 3 C7.56074219 2.5153125 8.12148438 2.030625 8.69921875 1.53125 C12.57224516 -1.04638387 16.51422331 -0.76938283 21 0 C23.7531144 1.40335743 25.64253066 2.95002666 28 5 C28.33 4.01 28.66 3.02 29 2 C33.26202587 -0.84135058 36.99988175 -0.50481963 42 0 C45.71878857 1.45517814 47.98012709 3.5992697 50.16650391 6.95361328 C52.01134508 11.4830388 51.39712607 16.57076808 51.25 21.375 C51.23195313 22.49261719 51.21390625 23.61023438 51.1953125 24.76171875 C51.14835555 27.5087003 51.08269468 30.25390047 51 33 C49.02 33 47.04 33 45 33 C44.970271 32.07719238 44.970271 32.07719238 44.93994141 31.13574219 C44.84450273 28.34007458 44.73490045 25.5451349 44.625 22.75 C44.5940625 21.78191406 44.563125 20.81382812 44.53125 19.81640625 C44.47324219 18.41455078 44.47324219 18.41455078 44.4140625 16.984375 C44.3826416 16.12553711 44.3512207 15.26669922 44.31884766 14.38183594 C43.9740874 11.8064293 43.39859921 10.18343736 42 8 C39.11487022 5.65477065 39.11487022 5.65477065 35.5 6.125 C32.02592087 6.66594526 32.02592087 6.66594526 30.31323242 8.74316406 C28.7948978 11.35247532 28.57978839 12.98294091 28.48828125 15.984375 C28.45283203 16.91894531 28.41738281 17.85351562 28.38085938 18.81640625 C28.35830078 19.78449219 28.33574219 20.75257813 28.3125 21.75 C28.27833984 22.73355469 28.24417969 23.71710938 28.20898438 24.73046875 C28.12664727 27.15353199 28.05745162 29.57623998 28 32 C26.02 32 24.04 32 22 32 C21.505 20.12 21.505 20.12 21 8 C15.4504424 5.75075714 15.4504424 5.75075714 10 7 C6.12454529 11.53215467 6.45274032 16.64278409 6.3125 22.3125 C6.27833984 23.24384766 6.24417969 24.17519531 6.20898438 25.13476562 C6.12684059 27.42305672 6.05758338 29.71098104 6 32 C4.02 32 2.04 32 0 32 C0 21.44 0 10.88 0 0 Z " fill="#F4F4F4" transform="translate(251,314)"/>
<path d="M0 0 C2.9485854 2.66776774 4.84100258 4.80700517 6.625 8.375 C6.625 11.015 6.625 13.655 6.625 16.375 C-5.75 16.87 -5.75 16.87 -18.375 17.375 C-16.20833333 23.20833333 -16.20833333 23.20833333 -13.375 24.375 C-10.33867811 24.73255914 -7.406218 24.79479098 -4.375 24.375 C-3.00189293 23.08266393 -1.66465176 21.75062854 -0.375 20.375 C3.375 20.125 3.375 20.125 6.625 20.375 C5.23178155 25.25126457 2.68641704 27.45077973 -1.375 30.375 C-6.12959019 32.3688604 -11.27246061 31.73005506 -16.0625 30.1875 C-20.3691042 27.83105619 -22.32277942 25.32160807 -24.625 21.0625 C-26.08149106 15.84340703 -26.22806747 11.41813539 -23.6875 6.625 C-17.90851269 -1.49682 -9.2124085 -4.43560409 0 0 Z " fill="#F4F4F4" transform="translate(333.375,315.625)"/>
<path d="M0 0 C3.17625 -0.061875 6.3525 -0.12375 9.625 -0.1875 C11.1092749 -0.22846802 11.1092749 -0.22846802 12.62353516 -0.27026367 C18.81659407 -0.32847617 22.76081401 0.63053203 27.84765625 4.3515625 C30.36350814 7.95050994 29.55496855 12.83468658 29 17 C26.89121967 20.69036558 24.87753593 22.40834389 21 24 C18.61816406 24.22705078 18.61816406 24.22705078 16.015625 24.1953125 C15.17290039 24.19031738 14.33017578 24.18532227 13.46191406 24.18017578 C11.8720166 24.15286377 11.8720166 24.15286377 10.25 24.125 C6.8675 24.08375 3.485 24.0425 0 24 C0 16.08 0 8.16 0 0 Z " fill="#41403B" transform="translate(77,189)"/>
<path d="M0 0 C1.98 0 3.96 0 6 0 C6.0093457 0.64549805 6.01869141 1.29099609 6.02832031 1.95605469 C6.08209101 4.88813944 6.1657234 7.81864008 6.25 10.75 C6.26417969 11.76578125 6.27835937 12.7815625 6.29296875 13.828125 C6.39761994 19.59865676 6.39761994 19.59865676 8.828125 24.67578125 C12.03093765 26.62857529 14.32683791 26.45914526 18 26 C20.26116573 24.89208413 20.26116573 24.89208413 22 23 C22.64070996 20.49925826 22.64070996 20.49925826 22.609375 17.67578125 C22.64160156 16.64775391 22.67382812 15.61972656 22.70703125 14.56054688 C22.72830078 12.95276367 22.72830078 12.95276367 22.75 11.3125 C22.77964844 10.22904297 22.80929688 9.14558594 22.83984375 8.02929688 C22.91058844 5.35278941 22.96326156 2.67715521 23 0 C25.31 0 27.62 0 30 0 C30 10.89 30 21.78 30 33 C27.69 33 25.38 33 23 33 C22.67 32.01 22.34 31.02 22 30 C21.360625 30.495 20.72125 30.99 20.0625 31.5 C15.94059396 33.51889276 12.51111052 33.84980427 8 33 C4.67952128 31.29051625 2.51794207 29.05163611 0.85205078 25.66918945 C-0.07087401 22.77797548 -0.22914826 20.50876902 -0.1953125 17.48046875 C-0.18564453 15.9480957 -0.18564453 15.9480957 -0.17578125 14.38476562 C-0.15902344 13.32966797 -0.14226562 12.27457031 -0.125 11.1875 C-0.11597656 10.11306641 -0.10695313 9.03863281 -0.09765625 7.93164062 C-0.07415306 5.28753146 -0.04129575 2.64388128 0 0 Z " fill="#EDEDED" transform="translate(93,314)"/>
<path d="M0 0 C8.58 0 17.16 0 26 0 C26 1.98 26 3.96 26 6 C19.4 6 12.8 6 6 6 C6 10.62 6 15.24 6 20 C11.94 20 17.88 20 24 20 C24 21.98 24 23.96 24 26 C18.06 26 12.12 26 6 26 C6 32.6 6 39.2 6 46 C4.02 46 2.04 46 0 46 C0 30.82 0 15.64 0 0 Z " fill="#FAFAFA" transform="translate(60,300)"/>
<path d="M0 0 C1.98 0 3.96 0 6 0 C6.33 1.32 6.66 2.64 7 4 C7.45375 3.34 7.9075 2.68 8.375 2 C11.86459894 -0.65874205 14.30589278 -0.50468383 18.59375 -0.328125 C23.05190753 0.27980557 26.16727345 2.60072814 29 6 C30.01973129 9.05919388 30.11533602 11.12418025 30.09765625 14.32421875 C30.09443359 15.35224609 30.09121094 16.38027344 30.08789062 17.43945312 C30.07951172 18.51130859 30.07113281 19.58316406 30.0625 20.6875 C30.05798828 21.77095703 30.05347656 22.85441406 30.04882812 23.97070312 C30.03703743 26.64719085 30.02058063 29.32356777 30 32 C28.02 32 26.04 32 24 32 C23.99589111 31.39003174 23.99178223 30.78006348 23.98754883 30.15161133 C23.95452425 27.37094208 23.88387432 24.59243843 23.8125 21.8125 C23.80669922 20.85279297 23.80089844 19.89308594 23.79492188 18.90429688 C23.64751779 14.17098793 23.55014406 11.73231097 20.640625 7.859375 C18.10508995 5.79845851 18.10508995 5.79845851 14.9375 5.4375 C11.38265419 6.11821515 10.222954 7.20072459 8 10 C6.82530556 12.34938888 6.79965111 13.95073205 6.68359375 16.5703125 C6.64169922 17.46621094 6.59980469 18.36210937 6.55664062 19.28515625 C6.51732422 20.22230469 6.47800781 21.15945313 6.4375 22.125 C6.37272461 23.54232422 6.37272461 23.54232422 6.30664062 24.98828125 C6.20040928 27.32537092 6.09836824 29.6625683 6 32 C4.02 32 2.04 32 0 32 C0 21.44 0 10.88 0 0 Z " fill="#F6F6F6" transform="translate(131,314)"/>
<path d="M0 0 C1.98 0 3.96 0 6 0 C6.33 1.32 6.66 2.64 7 4 C7.45375 3.34 7.9075 2.68 8.375 2 C12.35312988 -1.0309561 16.16443449 -0.65154535 21 0 C24.76292473 1.60124457 26.84097382 3.54555811 29 7 C30.00005304 10.00015912 30.11575585 11.97423756 30.09765625 15.10546875 C30.09443359 16.08837891 30.09121094 17.07128906 30.08789062 18.08398438 C30.07951172 19.10814453 30.07113281 20.13230469 30.0625 21.1875 C30.05798828 22.22326172 30.05347656 23.25902344 30.04882812 24.32617188 C30.0370401 26.88417266 30.02058515 29.44205733 30 32 C28.02 32 26.04 32 24 32 C23.98018066 31.41508789 23.96036133 30.83017578 23.93994141 30.22753906 C23.84446519 27.56791975 23.73487858 24.90906162 23.625 22.25 C23.5940625 21.32960938 23.563125 20.40921875 23.53125 19.4609375 C23.49257813 18.57148438 23.45390625 17.68203125 23.4140625 16.765625 C23.36693115 15.54020996 23.36693115 15.54020996 23.31884766 14.29003906 C22.86169362 11.00665097 21.95028606 8.73911138 19.3125 6.6875 C15.89259577 5.67077171 13.42890226 6.12718851 10 7 C7.21006023 9.88991295 6.60903022 12.02380895 6.48828125 15.984375 C6.45283203 16.91894531 6.41738281 17.85351562 6.38085938 18.81640625 C6.35830078 19.78449219 6.33574219 20.75257813 6.3125 21.75 C6.27833984 22.73355469 6.24417969 23.71710938 6.20898438 24.73046875 C6.12664727 27.15353199 6.05745162 29.57623998 6 32 C4.02 32 2.04 32 0 32 C0 21.44 0 10.88 0 0 Z " fill="#F6F6F6" transform="translate(347,314)"/>
<path d="M0 0 C2.5 1.6875 2.5 1.6875 4.5 4.6875 C4.5 5.6775 4.5 6.6675 4.5 7.6875 C1.6875 7.875 1.6875 7.875 -1.5 7.6875 C-1.974375 7.1925 -2.44875 6.6975 -2.9375 6.1875 C-4.58339692 4.27966358 -4.58339692 4.27966358 -8.1875 4.5 C-9.280625 4.561875 -10.37375 4.62375 -11.5 4.6875 C-11.83 6.3375 -12.16 7.9875 -12.5 9.6875 C-11.61957031 9.92984375 -10.73914063 10.1721875 -9.83203125 10.421875 C-8.67058594 10.75703125 -7.50914062 11.0921875 -6.3125 11.4375 C-5.16394531 11.76234375 -4.01539063 12.0871875 -2.83203125 12.421875 C0.6376939 13.73980108 2.85540498 15.09667678 5.5 17.6875 C6.13320617 21.1068133 6.27230001 23.37194713 4.47265625 26.4375 C2.32537284 29.15260607 0.80917859 30.58444047 -2.5 31.6875 C-11.41118644 32.11868644 -11.41118644 32.11868644 -15.5 29.6875 C-17.47006686 27.7881814 -18.88822852 25.94398008 -20.5 23.6875 C-20.5 22.6975 -20.5 21.7075 -20.5 20.6875 C-18.52 20.6875 -16.54 20.6875 -14.5 20.6875 C-14.17 22.0075 -13.84 23.3275 -13.5 24.6875 C-12.06465159 24.9101746 -10.62654475 25.11511906 -9.1875 25.3125 C-8.38699219 25.42851562 -7.58648437 25.54453125 -6.76171875 25.6640625 C-4.21276785 25.90283407 -4.21276785 25.90283407 -1.5 23.6875 C-1.5 22.3675 -1.5 21.0475 -1.5 19.6875 C-2.54800781 19.36136719 -3.59601563 19.03523438 -4.67578125 18.69921875 C-6.05484175 18.25829465 -7.43373962 17.81686168 -8.8125 17.375 C-9.50279297 17.16166016 -10.19308594 16.94832031 -10.90429688 16.72851562 C-17.56759282 14.57179665 -17.56759282 14.57179665 -19.5 11.6875 C-19.96061269 8.51439033 -20.19832854 6.70380983 -19.5 3.6875 C-14.31696431 -2.85949245 -7.50222434 -2.81333413 0 0 Z " fill="#F2F2F2" transform="translate(482.5,315.3125)"/>
<path d="M0 0 C0.66 0 1.32 0 2 0 C3.1334376 2.80934934 4.25681938 5.62208095 5.375 8.4375 C5.69210937 9.22060547 6.00921875 10.00371094 6.3359375 10.81054688 C8.44808277 16.15691459 9.88210893 21.35973141 11 27 C7.64793462 27.67753075 4.29306425 28.3400352 0.9375 29 C-0.47692383 29.28617187 -0.47692383 29.28617187 -1.91992188 29.578125 C-7.04669705 30.57847138 -11.77687319 31.231817 -17 31 C-13.7375959 24.05170666 -9.94245414 17.57762051 -5.87109375 11.07421875 C-3.67626634 7.46810358 -1.79632614 3.81719305 0 0 Z " fill="#0A1113" transform="translate(817,263)"/>
<path d="M0 0 C0.66 0 1.32 0 2 0 C3.8967607 3.31196978 5.79223482 6.62467422 7.6875 9.9375 C8.21794922 10.86369141 8.74839844 11.78988281 9.29492188 12.74414062 C12.57166689 18.47341873 15.81107786 24.22136231 19 30 C12.45262159 30.15856416 6.38367188 29.61020183 -0.0625 28.5 C-1.3609082 28.28537109 -1.3609082 28.28537109 -2.68554688 28.06640625 C-4.7914397 27.71736324 -6.89588495 27.35960461 -9 27 C-6.75424696 17.70179445 -3.45076489 8.90051656 0 0 Z " fill="#10191B" transform="translate(690,264)"/>
<path d="M0 0 C11.88 0 23.76 0 36 0 C28.76712329 9.64383562 28.76712329 9.64383562 25.375 13.875 C24.64023437 14.80054688 23.90546875 15.72609375 23.1484375 16.6796875 C21.1420839 18.84654939 19.71483767 19.931263 17 21 C12.3828979 16.68401325 8.40401096 12.12663905 4.5625 7.125 C3.88888428 6.24968628 3.88888428 6.24968628 3.20166016 5.35668945 C0 1.13598094 0 1.13598094 0 0 Z " fill="#0E1415" transform="translate(737,310)"/>
<path d="M0 0 C3.93739898 1.53567489 5.85296408 3.971178 8.4375 7.25 C9.21867188 8.23355469 9.99984375 9.21710938 10.8046875 10.23046875 C11.52914062 11.14441406 12.25359375 12.05835938 13 13 C14.01603056 14.19161187 15.03567142 15.38018024 16.0625 16.5625 C18 19 18 19 18 21 C6.45 21 -5.1 21 -17 21 C-12.49984759 13.12473328 -12.49984759 13.12473328 -10.01953125 10.5078125 C-9.49552734 9.94835937 -8.97152344 9.38890625 -8.43164062 8.8125 C-7.89732422 8.255625 -7.36300781 7.69875 -6.8125 7.125 C-6.26658203 6.54492188 -5.72066406 5.96484375 -5.15820312 5.3671875 C-1.71635842 1.71635842 -1.71635842 1.71635842 0 0 Z " fill="#0F1718" transform="translate(754,164)"/>
<path d="M0 0 C-0.47308594 0.825 -0.94617188 1.65 -1.43359375 2.5 C-6.66904187 11.64062133 -11.84590014 20.81329424 -17 30 C-17.66 30 -18.32 30 -19 30 C-19.40992188 28.83082031 -19.81984375 27.66164062 -20.2421875 26.45703125 C-20.78640215 24.90883441 -21.3306761 23.36065843 -21.875 21.8125 C-22.27912109 20.65911133 -22.27912109 20.65911133 -22.69140625 19.48242188 C-23.79374653 16.3501623 -24.89139822 13.25446888 -26.1953125 10.19921875 C-27 8 -27 8 -27 4 C-23.8148163 3.32193683 -20.62654387 2.65964849 -17.4375 2 C-16.54224609 1.80921875 -15.64699219 1.6184375 -14.72460938 1.421875 C-9.70738579 0.39270093 -5.12100455 -0.22479032 0 0 Z " fill="#11181A" transform="translate(709,201)"/>
<path d="M0 0 C9.35775436 0.40685889 17.92982326 1.60438853 27 4 C25.43889635 12.74218041 22.21518143 20.75983375 19 29 C18.01 29 17.02 29 16 29 C15.43152344 27.90042969 14.86304688 26.80085938 14.27734375 25.66796875 C10.21137669 17.86300872 6.08754973 10.24293201 1.21484375 2.90625 C0 1 0 1 0 0 Z " fill="#0A1011" transform="translate(800,201)"/>
<path d="M0 0 C0.05391993 1.79133978 0.09275571 3.58313899 0.125 5.375 C0.14820313 6.37273437 0.17140625 7.37046875 0.1953125 8.3984375 C0 11 0 11 -2 13 C-2.99 13 -3.98 13 -5 13 C-5.99 10.69 -6.98 8.38 -8 6 C-10.0892136 8.99160675 -10.0892136 8.99160675 -11.6875 12.4375 C-14.07442892 16.62571728 -16.5868119 18.09776375 -21 20 C-24.4375 20.25 -24.4375 20.25 -27 20 C-27.33 20.99 -27.66 21.98 -28 23 C-28.66 23 -29.32 23 -30 23 C-30.34664198 17.45372827 -29.86864896 12.86050156 -27 8 C-19.85216462 -0.04723188 -10.50260911 -3.5008697 0 0 Z " fill="#030517" transform="translate(948,477)"/>
<path d="M0 0 C2.38525199 1.84005154 3.09918243 2.91949594 4.1875 5.6875 C4.41875754 10.06597613 3.96187401 13.65500131 1.3125 17.1875 C-2.20812775 19.672649 -5.5379163 20.07833487 -9.80859375 20.046875 C-13.20379975 19.43798815 -14.75927524 17.30069515 -16.8125 14.6875 C-18.41556924 11.48136153 -18.29990461 8.16610003 -17.8125 4.6875 C-13.27371409 -2.76907686 -7.85537103 -3.66583981 0 0 Z " fill="#3A3A3B" transform="translate(191.8125,321.3125)"/>
<path d="M0 0 C3.4375 1.9375 3.4375 1.9375 6 5 C7.05909758 9.92359105 6.75662316 13.72156776 4.1875 18.0625 C0.74565749 21.11098908 -2.47583119 21.33459179 -6.99609375 21.29296875 C-10.14507222 20.83259178 -11.834621 19.23099654 -14 17 C-15.73125121 13.53749757 -15.47815224 9.78591771 -15 6 C-11.13463389 -0.48829311 -7.25354902 -1.87591785 0 0 Z " fill="#292929" transform="translate(429,320)"/>
<path d="M0 0 C3.4375 2 3.4375 2 6 5 C7.15405545 9.7836039 6.43035852 13.16896286 4.1875 17.5 C1.23864015 20.87012554 -0.43451688 20.95439652 -4.875 21.3125 C-8.17287177 21.28213286 -9.00374881 20.99760714 -11.9375 19.125 C-15.34274967 15.61656095 -15.33829025 12.97914831 -15.28515625 8.2578125 C-14.85933373 4.88623144 -13.46522826 3.25979257 -11 1 C-7.37005462 -1.75375167 -4.27235913 -1.10492046 0 0 Z " fill="#363637" transform="translate(230,320)"/>
<path d="M0 0 C1.98 0 3.96 0 6 0 C6 2.64 6 5.28 6 8 C8.97 8 11.94 8 15 8 C15 9.98 15 11.96 15 14 C12.03 14 9.06 14 6 14 C6.11386459 16.77170395 6.24060778 19.54178046 6.375 22.3125 C6.4059375 23.09818359 6.436875 23.88386719 6.46875 24.69335938 C6.50742187 25.45068359 6.54609375 26.20800781 6.5859375 26.98828125 C6.6173584 27.68477783 6.6487793 28.38127441 6.68115234 29.09887695 C6.92118253 31.32532739 6.92118253 31.32532739 9 34 C12.06556598 34.73343428 12.06556598 34.73343428 15 35 C15 36.98 15 38.96 15 41 C9.21190227 40.74779531 5.17399994 40.43487494 1 36 C0.05862745 33.17588235 -0.11725382 31.47081968 -0.09765625 28.55078125 C-0.09443359 27.70322266 -0.09121094 26.85566406 -0.08789062 25.98242188 C-0.07951172 25.10134766 -0.07113281 24.22027344 -0.0625 23.3125 C-0.05798828 22.41982422 -0.05347656 21.52714844 -0.04882812 20.60742188 C-0.03704983 18.40488013 -0.02060164 16.20247401 0 14 C-1.98 14 -3.96 14 -6 14 C-6 12.02 -6 10.04 -6 8 C-4.02 8 -2.04 8 0 8 C0 5.36 0 2.72 0 0 Z " fill="#F6F6F6" transform="translate(388,306)"/>
<path d="M0 0 C2.18975773 3.28463659 2.99806563 6.20696275 4 10 C5.65 9.34 7.3 8.68 9 8 C9.08097324 10.27024968 9.13917704 12.54132075 9.1875 14.8125 C9.23970703 16.70935547 9.23970703 16.70935547 9.29296875 18.64453125 C9 22 9 22 7.62109375 23.90625 C6 25 6 25 3.875 25.6875 C1.82492536 26.81741802 1.82492536 26.81741802 1.5234375 28.90234375 C1.27434542 30.92710647 1.1313416 32.96420523 1 35 C-0.99704988 33.00295012 -1.68808813 31.66090763 -2.8125 29.125 C-5.2776084 24.1038198 -8.03837869 21.74023446 -13.3125 19.75 C-14.199375 19.5025 -15.08625 19.255 -16 19 C-14.66293811 16.32587622 -13.45715111 16.3142887 -10.6875 15.3125 C-5.56822764 13.12665196 -4.18573365 11.07090207 -2 6 C-1.27954236 4.0187415 -0.59218657 2.02330411 0 0 Z " fill="#06152F" transform="translate(939,480)"/>
<path d="M0 0 C1.98 0 3.96 0 6 0 C6 15.18 6 30.36 6 46 C4.02 46 2.04 46 0 46 C0 30.82 0 15.64 0 0 Z " fill="#F6F6F6" transform="translate(450,300)"/>
<path d="M0 0 C1.69576172 -0.03867188 1.69576172 -0.03867188 3.42578125 -0.078125 C8.26481058 0.40867556 10.74886736 2.23526201 14 5.75 C15.6875 8.25 15.6875 8.25 15.6875 11.25 C5.4575 11.25 -4.7725 11.25 -15.3125 11.25 C-12.0680791 3.13894775 -8.52924413 0.11591272 0 0 Z " fill="#414037" transform="translate(164.3125,212.75)"/>
<path d="M0 0 C0.33 0 0.66 0 1 0 C1.03738281 0.90363281 1.07476563 1.80726563 1.11328125 2.73828125 C1.21189453 4.50751953 1.21189453 4.50751953 1.3125 6.3125 C1.37050781 7.48425781 1.42851563 8.65601563 1.48828125 9.86328125 C2.02854378 13.17496685 2.40996604 14.02390002 5 16 C5.66 16.66 6.32 17.32 7 18 C4.66666667 20.33333333 2.33333333 22.66666667 0 25 C-0.515625 24.030625 -1.03125 23.06125 -1.5625 22.0625 C-3.76438296 18.64608309 -3.76438296 18.64608309 -7.75 18.125 C-8.8225 18.08375 -9.895 18.0425 -11 18 C-9.88625 16.9790625 -9.88625 16.9790625 -8.75 15.9375 C-4.25487314 11.42963907 -1.78372652 6.09439895 0 0 Z " fill="#749DB8" transform="translate(939,480)"/>
<path d="M0 0 C2.9375 1.75 2.9375 1.75 5 4 C5 5.32 5 6.64 5 8 C-0.94 8 -6.88 8 -13 8 C-11.23764023 0.95056092 -7.03703136 -1.00529019 0 0 Z " fill="#3B3B3C" transform="translate(328,319)"/>
<path d="M0 0 C18.15 0 36.3 0 55 0 C54.34 0.99 53.68 1.98 53 3 C50.78536987 3.32279968 50.78536987 3.32279968 47.99951172 3.2487793 C46.43811966 3.21840828 46.43811966 3.21840828 44.84518433 3.18742371 C43.71807037 3.15006607 42.59095642 3.11270844 41.4296875 3.07421875 C39.70264084 3.03455742 39.70264084 3.03455742 37.94070435 2.99409485 C34.25162248 2.90609877 30.56349941 2.79702854 26.875 2.6875 C24.37894096 2.62426564 21.88284688 2.56239881 19.38671875 2.50195312 C13.25731712 2.35052036 7.12857296 2.18176718 1 2 C0.67 2.66 0.34 3.32 0 4 C0 2.68 0 1.36 0 0 Z " fill="#1E2223" transform="translate(675,354)"/>
<path d="M0 0 C18.15 0 36.3 0 55 0 C55 0.66 55 1.32 55 2 C47.64981401 2.21874973 40.2992756 2.41373158 32.94799805 2.59204102 C30.44622467 2.6555477 27.94458428 2.72453544 25.44311523 2.79907227 C21.85160669 2.90514457 18.26008426 2.99162493 14.66796875 3.07421875 C12.98503975 3.1302552 12.98503975 3.1302552 11.26811218 3.18742371 C10.22725967 3.20767105 9.18640717 3.2279184 8.11401367 3.2487793 C7.19690109 3.27320602 6.27978851 3.29763275 5.33488464 3.32279968 C3 3 3 3 0 0 Z " fill="#1A1C1C" transform="translate(779,354)"/>
<path d="M0 0 C3.5625 0.25 3.5625 0.25 6.5625 2.25 C6.5625 2.91 6.5625 3.57 6.5625 4.25 C8.5425 4.25 10.5225 4.25 12.5625 4.25 C12.8925 3.59 13.2225 2.93 13.5625 2.25 C13.5625 3.24 13.5625 4.23 13.5625 5.25 C12.2425 5.58 10.9225 5.91 9.5625 6.25 C9.2325 7.57 8.9025 8.89 8.5625 10.25 C4.2725 9.26 -0.0175 8.27 -4.4375 7.25 C-4.7675 5.6 -5.0975 3.95 -5.4375 2.25 C-3.4375 0.25 -3.4375 0.25 0 0 Z " fill="#2C2C2C" transform="translate(474.4375,318.75)"/>
<path d="M0 0 C17.49 0 34.98 0 53 0 C53 0.66 53 1.32 53 2 C36.5 2 20 2 3 2 C2.67 2.66 2.34 3.32 2 4 C1.34 2.68 0.68 1.36 0 0 Z " fill="#1C1D1E" transform="translate(781,174)"/>
<path d="M0 0 C17.82 0 35.64 0 54 0 C53.01 1.32 52.02 2.64 51 4 C51 3.34 51 2.68 51 2 C34.83 2 18.66 2 2 2 C2 3.98 2 5.96 2 8 C0 5 0 5 0 0 Z " fill="#1F282A" transform="translate(674,174)"/>
<path d="M0 0 C0.33 0 0.66 0 1 0 C1.58079748 10.88457503 1.58079748 10.88457503 -2 16 C-4.94816472 18.16198746 -7.40855357 18.1995248 -11 18 C-9.88625 16.9790625 -9.88625 16.9790625 -8.75 15.9375 C-4.25487314 11.42963907 -1.78372652 6.09439895 0 0 Z " fill="#624AA0" transform="translate(939,480)"/>
<path d="M0 0 C2.35953094 2.35953094 2.49141413 3.77895617 3 7 C4.65 6.34 6.3 5.68 8 5 C8 7.97 8 10.94 8 14 C5.125 13.6875 5.125 13.6875 2 13 C-0.20914 9.68629 -0.22481553 8.6553979 -0.125 4.8125 C-0.10695313 3.91144531 -0.08890625 3.01039063 -0.0703125 2.08203125 C-0.04710937 1.39496094 -0.02390625 0.70789063 0 0 Z " fill="#113F68" transform="translate(940,483)"/>
<path d="M0 0 C8.70086898 5.46911765 8.70086898 5.46911765 10.1875 10.375 C10.3125 13.625 10.3125 13.625 10.1875 16.375 C9.16180056 14.83645084 8.13984814 13.29251827 7.21484375 11.69140625 C3.89433803 6.34765332 0.03733619 4.42690333 -5.8125 2.375 C-4.44592085 -0.35815829 -2.93084795 -1.01063722 0 0 Z " fill="#51106A" transform="translate(928.8125,496.625)"/>
<path d="M0 0 C3.59331694 0.19962872 4.79828955 0.78738628 7.3125 3.4375 C9.51967498 8.09709163 9.36031186 11.93561658 9 17 C8.67 17 8.34 17 8 17 C7.87044922 16.00419922 7.87044922 16.00419922 7.73828125 14.98828125 C6.79689582 9.07223517 5.80230137 5.94034984 1 2 C0.67 1.34 0.34 0.68 0 0 Z " fill="#140F30" transform="translate(931,498)"/>
<path d="M0 0 C0.99 0.66 1.98 1.32 3 2 C2.34 2 1.68 2 1 2 C0.67 3.65 0.34 5.3 0 7 C-2.31 7.33 -4.62 7.66 -7 8 C-6.21625 7.236875 -5.4325 6.47375 -4.625 5.6875 C-1.92742283 3.09108195 -1.92742283 3.09108195 0 0 Z " fill="#6B1A89" transform="translate(935,490)"/>
<path d="M0 0 C0 2.31 0 4.62 0 7 C-0.66 6.01 -1.32 5.02 -2 4 C-4.33524782 6.25740623 -6.18705073 8.2805761 -8 11 C-8.4375 8.3125 -8.4375 8.3125 -8 5 C-6.05082863 3.06582226 -2.90453324 0 0 0 Z " fill="#01061C" transform="translate(948,502)"/>
<path d="M0 0 C3.16115776 1.36983503 3.9927092 1.9890638 6 5 C-2 5 -2 5 -4 4 C-2.68 2.68 -1.36 1.36 0 0 Z " fill="#153136" transform="translate(754,351)"/>
<path d="M0 0 C4.97631579 4.81578947 4.97631579 4.81578947 5.0625 9.125 C5.041875 10.07375 5.02125 11.0225 5 12 C2.63984051 8.45976076 0 4.36489861 0 0 Z " fill="#291364" transform="translate(934,501)"/>
<path d="M0 0 C1.32 0.99 2.64 1.98 4 3 C3.67 4.32 3.34 5.64 3 7 C2.34 7 1.68 7 1 7 C0.87625 6.360625 0.7525 5.72125 0.625 5.0625 C0.315625 4.0415625 0.315625 4.0415625 0 3 C-0.66 2.67 -1.32 2.34 -2 2 C-1.34 1.34 -0.68 0.68 0 0 Z " fill="#361349" transform="translate(930,487)"/>
<path d="M0 0 C2.31 0 4.62 0 7 0 C6.01 1.98 5.02 3.96 4 6 C0 1.125 0 1.125 0 0 Z " fill="#4A6EA9" transform="translate(936,499)"/>
<path d="M0 0 C0.33 0.99 0.66 1.98 1 3 C-0.32 3.33 -1.64 3.66 -3 4 C-3.33 5.32 -3.66 6.64 -4 8 C-4.66 8 -5.32 8 -6 8 C-6 6.02 -6 4.04 -6 2 C-4.02 2 -2.04 2 0 2 C0 1.34 0 0.68 0 0 Z " fill="#49494A" transform="translate(487,321)"/>
<path d="M0 0 C0 0.33 0 0.66 0 1 C-0.886875 1.2475 -1.77375 1.495 -2.6875 1.75 C-6.10427135 3.03934768 -8.2797748 4.59980129 -11 7 C-8.87296567 0.78251503 -6.45381515 -0.28683623 0 0 Z " fill="#636363" transform="translate(149,319)"/>
<path d="M0 0 C2 1 4 2 6 3 C6 3.99 6 4.98 6 6 C3.37812506 4.95125002 2.20628639 4.35068687 0.75 1.875 C0.5025 1.25625 0.255 0.6375 0 0 Z " fill="#0766A8" transform="translate(942,491)"/>
<path d="M0 0 C-0.33 1.32 -0.66 2.64 -1 4 C-2.32 4.33 -3.64 4.66 -5 5 C-4.625 3.0625 -4.625 3.0625 -4 1 C-2 0 -2 0 0 0 Z " fill="#051830" transform="translate(948,485)"/>
<path d="M0 0 C0.66 0.33 1.32 0.66 2 1 C-0.31 3.31 -2.62 5.62 -5 8 C-5 5 -5 5 -2.5 2.3125 C-1.675 1.549375 -0.85 0.78625 0 0 Z " fill="#4E4B38" transform="translate(156,214)"/>
</svg>
