<?xml version="1.0" standalone="no"?>
<!DOCTYPE svg PUBLIC "-//W3C//DTD SVG 20010904//EN"
 "http://www.w3.org/TR/2001/REC-SVG-20010904/DTD/svg10.dtd">
<svg version="1.0" xmlns="http://www.w3.org/2000/svg"
 width="935.000000pt" height="534.000000pt" viewBox="0 0 935.000000 534.000000"
 preserveAspectRatio="xMidYMid meet">

<g transform="translate(0.000000,534.000000) scale(0.100000,-0.100000)"
fill="#000000" stroke="none">
<path d="M0 2670 l0 -2670 844 0 c666 0 845 3 849 13 4 9 6 9 6 -1 1 -10 140
-12 681 -12 637 0 680 2 680 18 1 16 1 16 14 0 13 -17 174 -18 3145 -18 l3131
0 0 2670 0 2670 -4675 0 -4675 0 0 -2670z m3270 1880 c0 -5 -25 -10 -55 -10
-45 0 -55 -3 -56 -17 0 -11 -3 -13 -6 -5 -2 6 -18 12 -33 12 -49 0 -43 19 7
23 100 7 143 7 143 -3z m-1215 -15 c28 -2 65 -4 84 -4 19 -1 32 -3 29 -6 -11
-11 -253 -12 -270 -1 -33 20 -18 27 45 21 34 -4 85 -8 112 -10z m895 -11 c0
-2 -14 -4 -31 -4 -16 0 -28 4 -25 9 5 8 56 3 56 -5z m-1530 -3 c0 -13 -28 -21
-47 -13 -14 5 -12 8 12 13 17 4 31 7 33 8 1 0 2 -3 2 -8z m2034 -11 c11 -10
-2 -31 -17 -29 -30 4 -47 -2 -47 -16 0 -23 -16 -18 -34 10 -24 37 -4 56 49 48
22 -3 44 -9 49 -13z m31 0 c3 -5 1 -10 -4 -10 -6 0 -11 5 -11 10 0 6 2 10 4
10 3 0 8 -4 11 -10z m-1224 -11 c15 -7 24 -7 35 2 10 8 17 9 28 0 9 -8 22 -8
39 -2 39 15 65 -27 35 -57 -14 -14 13 -27 38 -18 10 4 14 1 12 -6 -6 -16 -32
-18 -250 -17 -15 0 -30 4 -33 9 -5 9 82 16 123 11 6 -1 12 2 12 7 0 14 -25 21
-40 12 -36 -22 -66 22 -37 55 15 17 14 17 38 4z m-961 -24 c15 -18 -10 -24
-75 -22 -38 2 -51 7 -53 20 -3 15 5 17 57 16 36 -1 65 -7 71 -14z m2000 -35
c0 -5 -2 -10 -4 -10 -3 0 -8 5 -11 10 -3 6 -1 10 4 10 6 0 11 -4 11 -10z
m-640 -22 c0 -5 -18 -8 -39 -8 -22 0 -42 -5 -44 -12 -4 -10 -8 -10 -15 1 -6 9
-19 11 -35 7 -25 -6 -43 5 -30 17 9 9 163 4 163 -5z m140 3 c0 -4 -29 -9 -65
-10 -39 -1 -65 2 -65 9 0 6 27 10 65 10 36 0 65 -4 65 -9z m77 3 c-3 -3 -12
-4 -19 -1 -8 3 -5 6 6 6 11 1 17 -2 13 -5z m130 -16 c-3 -8 -6 -5 -6 6 -1 11
2 17 5 13 3 -3 4 -12 1 -19z m-1237 2 c0 -5 -2 -10 -4 -10 -3 0 -8 5 -11 10
-3 6 -1 10 4 10 6 0 11 -4 11 -10z m286 -1 c2 -4 -50 -8 -116 -8 -72 1 -120 5
-120 10 0 12 228 10 236 -2z m69 1 c3 -5 -1 -10 -9 -10 -9 0 -16 5 -16 10 0 6
4 10 9 10 6 0 13 -4 16 -10z m198 -47 c-7 -2 -19 -2 -25 0 -7 3 -2 5 12 5 14
0 19 -2 13 -5z m760 -10 c-7 -2 -19 -2 -25 0 -7 3 -2 5 12 5 14 0 19 -2 13 -5z
m395 -25 c43 -33 52 -48 29 -48 -15 0 -87 58 -87 71 0 16 15 10 58 -23z m-326
-35 c17 -33 17 -33 -3 -33 -27 0 -79 37 -79 56 0 11 9 14 32 12 23 -2 36 -11
50 -35z m-652 -3 c0 -5 -5 -10 -11 -10 -5 0 -7 5 -4 10 3 6 8 10 11 10 2 0 4
-4 4 -10z m-515 -50 c-22 -5 -44 -4 -49 1 -6 5 10 9 40 8 l49 -1 -40 -8z m831
-121 c12 -19 -12 -32 -36 -19 -18 10 -20 14 -9 21 19 12 36 11 45 -2z m764 2
c0 -10 -35 -21 -65 -20 -13 0 -8 5 15 14 43 17 50 17 50 6z m14 -183 c36 -24
66 -46 66 -50 0 -5 -14 -8 -31 -8 -24 0 -30 -4 -25 -16 4 -9 -5 -24 -22 -39
-31 -28 -68 -34 -58 -9 3 9 6 20 6 25 0 5 10 14 23 19 19 8 20 9 3 9 -11 1
-49 20 -85 43 l-65 43 44 7 c23 4 45 10 48 13 12 11 32 3 96 -37z m-144 -79
c0 -5 -7 -9 -15 -9 -15 0 -20 12 -9 23 8 8 24 -1 24 -14z m-423 -23 c-5 -12 3
-14 36 -13 38 2 42 0 43 -23 1 -37 -6 -43 -26 -25 -21 19 -40 13 -40 -13 -1
-14 -4 -13 -20 6 -17 21 -48 23 -35 2 3 -4 -3 -14 -12 -21 -13 -11 -15 -11 -9
-1 5 9 1 19 -13 28 -35 25 -26 44 19 44 27 0 43 5 46 15 4 8 8 15 11 15 3 0 3
-6 0 -14z m-1456 -26 c11 0 19 7 19 18 1 16 1 16 14 0 14 -19 46 -24 46 -8 0
6 5 10 11 10 5 0 7 -4 4 -10 -4 -6 5 -10 19 -10 14 0 26 5 26 11 0 5 10 3 22
-5 28 -20 44 -21 28 -1 -10 12 -10 15 4 15 9 0 16 -6 16 -14 0 -7 10 -16 22
-19 21 -6 21 -7 5 -25 -9 -10 -17 -23 -17 -28 0 -5 -9 -10 -20 -11 -14 -1 -20
4 -20 18 0 23 -13 25 -30 4 -16 -20 -30 -19 -30 2 0 15 -1 15 -18 0 -21 -19
-42 -22 -42 -6 0 7 -7 8 -17 4 -10 -4 -24 -9 -30 -12 -8 -3 -13 3 -13 16 0 25
-13 27 -31 5 -12 -14 -14 -13 -21 7 -7 18 -5 27 8 36 10 7 14 13 10 13 -4 0
-4 6 1 13 5 9 8 7 11 -5 2 -10 12 -18 23 -18z m1289 -35 c0 -19 -4 -35 -10
-35 -5 0 -10 7 -10 15 0 8 -9 19 -20 25 -26 14 -17 30 16 30 21 0 24 -5 24
-35z m27 3 c-3 -7 -5 -2 -5 12 0 14 2 19 5 13 2 -7 2 -19 0 -25z m-147 1 c14
-25 12 -27 -28 -35 -24 -5 -33 -2 -38 10 -17 43 44 67 66 25z m886 -1 c34 -20
35 -22 18 -35 -23 -17 -27 -17 -68 8 -38 22 -44 34 -23 42 23 10 36 7 73 -15z
m-2276 3 c0 -5 -9 -11 -20 -14 -13 -3 -20 0 -20 9 0 8 9 14 20 14 11 0 20 -4
20 -9z m820 -6 c6 -3 10 -15 10 -26 0 -18 -8 -19 -154 -19 -85 0 -157 3 -159
8 -3 4 -1 18 4 31 l9 24 140 -6 c78 -4 145 -9 150 -12z m470 -10 c0 -23 -3
-25 -52 -25 -29 0 -70 -3 -90 -6 -35 -6 -38 -5 -38 18 0 14 3 28 7 31 3 4 44
7 90 7 82 0 83 0 83 -25z m950 -175 c0 -5 -9 -10 -19 -10 -11 0 -23 5 -26 10
-4 6 5 10 19 10 14 0 26 -4 26 -10z m-200 -80 c0 -5 -2 -10 -4 -10 -3 0 -8 5
-11 10 -3 6 -1 10 4 10 6 0 11 -4 11 -10z m-1400 -81 l0 -59 -37 0 c-72 0 -81
7 -85 61 -3 54 -4 54 75 56 l47 2 0 -60z m760 11 c0 -46 -3 -51 -27 -61 -15
-5 -45 -9 -67 -7 l-41 3 -3 58 -3 57 71 0 70 0 0 -50z m-1530 14 c0 -8 -5 -12
-10 -9 -6 4 -8 11 -5 16 9 14 15 11 15 -7z m370 -4 c0 -5 -4 -10 -10 -10 -5 0
-10 5 -10 10 0 6 5 10 10 10 6 0 10 -4 10 -10z m1940 0 c0 -5 -4 -10 -10 -10
-5 0 -10 5 -10 10 0 6 5 10 10 10 6 0 10 -4 10 -10z m-2093 -16 c5 -13 15 -15
50 -10 23 3 43 2 43 -2 0 -4 27 -5 60 -4 51 3 60 1 60 -13 0 -12 -6 -16 -20
-12 -25 6 -25 1 -2 -27 9 -13 23 -21 30 -18 6 2 12 -4 12 -13 0 -11 -5 -15
-15 -11 -8 3 -15 1 -15 -3 0 -5 5 -11 11 -13 9 -3 7 -14 -4 -38 -8 -19 -18
-47 -21 -63 -4 -15 -15 -36 -26 -47 -11 -11 -20 -26 -20 -33 0 -9 -18 -12 -67
-10 -82 3 -94 8 -87 28 4 10 0 15 -10 15 -10 0 -16 9 -16 24 0 16 -7 26 -22
30 -38 10 -48 7 -48 -14 0 -15 -7 -20 -25 -20 -20 0 -25 -5 -26 -27 -1 -34 2
-127 4 -130 1 -1 16 -3 32 -6 17 -2 38 -7 48 -12 9 -4 26 -5 36 -2 14 3 18 -2
19 -27 0 -17 6 -32 11 -34 6 -2 11 -12 11 -22 0 -21 19 -30 61 -30 26 0 29 -4
29 -30 0 -23 5 -30 18 -30 11 0 33 -7 50 -16 18 -8 44 -14 59 -12 27 3 28 5
25 54 -2 30 1 55 7 58 8 5 11 -14 11 -58 0 -66 14 -97 22 -51 3 14 1 25 -3 25
-5 0 -9 7 -9 15 0 8 5 15 11 15 8 0 8 4 0 14 -12 14 -2 27 30 39 18 6 31 54
18 63 -16 9 -10 84 6 90 8 4 15 18 15 33 0 15 8 31 20 39 11 6 17 18 14 25 -3
9 9 19 34 29 33 13 40 21 46 51 6 34 25 48 66 51 8 1 16 11 18 24 3 21 24 27
90 25 11 -1 16 13 15 44 0 7 16 12 46 12 63 0 82 5 93 24 13 25 65 22 73 -3 3
-11 14 -20 23 -21 59 -4 84 -7 89 -13 3 -3 13 0 21 7 12 9 16 9 19 0 5 -15 33
-17 33 -3 0 6 18 10 39 10 33 0 40 -4 45 -26 6 -24 10 -25 42 -19 40 7 64 -7
64 -36 0 -10 9 -24 20 -31 11 -7 20 -18 20 -25 0 -12 5 -15 39 -17 14 -1 17
-5 42 -58 7 -16 16 -28 21 -28 4 0 3 9 -4 20 -16 24 -1 43 37 44 43 2 32 21
-15 26 l-45 5 35 8 c19 4 43 9 52 10 27 5 34 17 10 17 -11 0 -24 5 -28 12 -5
8 -2 9 9 5 9 -3 19 -2 22 4 4 5 12 9 18 8 30 -4 38 2 32 21 -4 14 -1 22 9 25
55 17 53 15 32 30 -17 13 -16 14 15 19 19 3 41 5 49 4 8 0 52 0 98 0 70 2 82
4 83 20 1 16 2 16 6 0 2 -10 11 -18 19 -18 11 0 14 -20 15 -97 0 -54 3 -122 5
-150 3 -29 1 -53 -3 -53 -10 0 -5 -533 5 -574 l8 -31 75 2 c41 1 97 5 124 8
28 4 61 2 75 -3 23 -9 24 -11 21 -103 -1 -52 -6 -95 -12 -97 -5 -2 -9 -12 -9
-21 0 -27 -35 -54 -59 -46 -11 3 -29 2 -38 -4 -10 -6 -13 -11 -7 -11 5 0 20
-14 33 -30 34 -47 2 -51 -52 -6 -24 20 -46 34 -48 31 -3 -2 -20 -6 -40 -8 -19
-2 -40 -7 -47 -11 -11 -6 -101 -14 -202 -16 -35 -1 -107 13 -117 24 -3 2 -5
30 -4 61 0 42 -4 57 -15 62 -9 3 -19 15 -24 27 -8 20 -8 20 -19 -6 -13 -33
-36 -37 -44 -7 -5 18 -11 21 -36 16 -18 -4 -31 -2 -31 3 0 6 -4 10 -10 10 -5
0 -10 -7 -10 -15 0 -9 9 -15 25 -15 40 0 29 -20 -12 -21 -21 -1 -45 0 -53 1
-12 1 -13 -1 -2 -11 6 -7 12 -23 12 -34 0 -21 22 -37 68 -50 15 -4 25 -17 29
-36 4 -21 11 -29 27 -29 13 0 37 -13 54 -28 27 -24 32 -36 32 -72 0 -39 -2
-42 -22 -37 -12 4 -27 2 -32 -2 -14 -11 -138 -22 -235 -22 -79 0 -96 10 -123
72 -10 22 -20 29 -40 29 -18 0 -29 7 -33 20 -7 22 -4 21 -183 25 -56 1 -105
-2 -108 -6 -7 -12 -84 -11 -84 1 0 6 -9 10 -20 10 -13 0 -24 10 -30 25 -7 19
-17 25 -40 25 -27 0 -30 3 -30 30 0 19 -5 30 -14 30 -7 0 -19 7 -26 14 -9 11
-18 13 -37 5 -20 -7 -28 -6 -38 8 -13 17 -14 17 -34 -1 -17 -16 -29 -17 -18
-3 6 9 -27 37 -43 37 -21 0 -30 28 -18 59 6 18 11 21 22 12 11 -9 15 -9 19 1
4 10 8 10 17 -2 9 -12 11 -12 8 -1 -9 33 -108 39 -108 6 0 -19 -21 -30 -30
-15 -5 8 -11 1 -18 -19 -8 -21 -18 -31 -31 -31 -12 0 -21 -7 -21 -15 0 -10
-10 -15 -29 -15 -25 0 -30 -4 -33 -27 -3 -24 -7 -28 -31 -26 -21 1 -27 -2 -25
-15 3 -15 -7 -17 -77 -17 -108 1 -283 21 -299 35 -8 6 -16 24 -20 40 -3 17
-11 30 -18 30 -7 0 -19 12 -25 28 -14 30 -16 170 -4 190 13 22 66 17 90 -7 14
-14 29 -20 41 -16 11 4 22 0 27 -10 5 -9 22 -17 37 -19 15 -2 31 -8 34 -13 4
-6 28 -9 60 -6 l52 6 0 38 c0 31 -4 39 -18 39 -14 0 -17 7 -14 33 3 27 -1 35
-27 49 -17 9 -31 24 -31 33 0 8 -7 15 -15 15 -8 0 -21 15 -29 34 -8 19 -20 34
-28 33 -38 -1 -58 5 -58 18 0 8 -9 19 -20 25 -11 6 -22 21 -26 35 -3 14 -17
28 -35 34 -16 5 -29 7 -29 4 0 -3 -7 1 -16 8 -11 9 -14 23 -10 49 3 19 1 53
-4 75 -6 26 -5 44 2 52 5 7 7 20 4 29 -4 10 -7 53 -7 97 0 63 3 82 15 89 9 5
16 20 16 33 0 17 4 23 15 19 9 -4 16 3 21 20 6 25 18 31 56 28 10 -1 18 7 20
21 3 21 7 22 81 19 64 -2 77 0 77 13 0 22 88 21 97 -1z m993 -4 c0 -5 -4 -10
-10 -10 -5 0 -10 5 -10 10 0 6 5 10 10 10 6 0 10 -4 10 -10z m-750 -19 c0 -6
-4 -13 -10 -16 -5 -3 -10 1 -10 9 0 9 5 16 10 16 6 0 10 -4 10 -9z m1280 -10
c0 -10 -51 -22 -64 -14 -4 3 -2 9 5 14 18 11 59 11 59 0z m-1184 -31 c47 0 51
-7 37 -58 -5 -21 -11 -23 -44 -20 -22 2 -40 -1 -42 -6 -2 -5 -3 20 -3 55 -1
35 1 56 3 47 4 -14 15 -18 49 -18z m1794 21 c0 -16 -28 -20 -40 -5 -10 12 -8
14 14 14 14 0 26 -4 26 -9z m-719 -32 c6 -10 11 -10 22 0 12 9 17 9 22 0 9
-13 -14 -31 -32 -25 -6 3 -14 -6 -17 -20 -7 -26 -21 -29 -60 -14 -20 7 -26 17
-26 38 0 16 3 31 6 35 10 10 76 -1 85 -14z m79 -9 c0 -5 -4 -10 -10 -10 -5 0
-10 5 -10 10 0 6 5 10 10 10 6 0 10 -4 10 -10z m526 -41 c3 -6 17 -8 30 -5 14
4 24 2 24 -4 0 -5 -6 -10 -14 -10 -7 0 -19 -7 -26 -15 -16 -19 -30 -19 -30 0
0 9 -6 12 -15 9 -8 -4 -23 -3 -32 1 -15 6 -13 9 12 20 38 17 42 17 51 4z
m4351 -25 c12 -19 11 -24 -5 -44 -14 -18 -25 -21 -45 -16 -34 8 -44 41 -21 67
22 24 52 21 71 -7z m543 -229 l0 -255 -40 0 -40 0 0 255 0 255 40 0 40 0 0
-255z m-3427 214 c54 -14 121 -81 136 -134 26 -94 8 -186 -47 -247 -56 -63
-107 -81 -239 -86 l-113 -5 0 240 c0 132 3 243 7 246 9 10 208 -1 256 -14z
m481 -4 c78 -37 80 -150 4 -191 l-23 -12 25 -10 c48 -19 75 -59 75 -112 0 -42
-5 -54 -33 -83 -43 -44 -88 -57 -201 -57 l-91 0 0 238 c0 131 3 242 7 246 13
13 201 -2 237 -19z m624 -13 l3 -32 -90 0 -91 0 0 -70 0 -70 80 0 80 0 0 -35
0 -35 -80 0 -80 0 0 -70 0 -70 95 0 95 0 0 -35 0 -35 -135 0 -135 0 0 238 c0
131 2 241 5 244 3 3 60 5 128 4 l122 -1 3 -33z m-4337 -25 c-8 -8 -11 -7 -11
4 0 20 13 34 18 19 3 -7 -1 -17 -7 -23z m5889 -33 l0 -44 40 0 c38 0 40 -2 40
-29 0 -27 -3 -30 -37 -33 l-38 -3 -3 -90 c-4 -123 0 -135 43 -135 32 0 35 -3
35 -29 0 -25 -5 -31 -30 -36 -41 -9 -84 2 -106 27 -16 16 -20 42 -24 142 l-5
121 -28 3 c-24 3 -28 7 -25 30 2 21 9 28 31 30 24 3 27 7 27 41 0 34 3 39 33
48 17 5 35 8 40 6 4 -2 7 -24 7 -49z m-5815 14 c22 -2 31 -9 33 -24 3 -19 -3
-22 -40 -26 -42 -5 -65 0 -41 9 8 3 10 16 7 36 -3 18 -2 27 3 20 4 -6 22 -13
38 -15z m1754 -27 c9 -6 2 -10 -23 -13 -34 -4 -44 1 -29 15 9 10 35 8 52 -2z
m-1832 -53 c-3 -8 -6 -5 -6 6 -1 11 2 17 5 13 3 -3 4 -12 1 -19z m4617 16 c10
-4 16 -18 16 -36 0 -28 -1 -29 -32 -22 -70 17 -129 -4 -115 -40 4 -9 35 -29
71 -46 74 -35 85 -46 92 -92 14 -82 -97 -139 -208 -107 -35 9 -38 13 -38 46 0
29 3 34 18 28 55 -22 76 -26 107 -21 37 7 56 39 36 60 -7 6 -40 25 -74 41 -72
35 -95 68 -80 118 13 48 64 77 134 77 31 0 64 -3 73 -6z m303 -5 c5 -5 8 -21
5 -34 -4 -25 -15 -26 -69 -10 -7 2 -26 -1 -43 -6 -22 -8 -30 -17 -30 -35 0
-20 10 -29 57 -50 80 -35 103 -59 103 -106 0 -73 -83 -119 -185 -102 -49 9
-50 10 -53 46 l-3 37 35 -14 c69 -29 131 -12 124 35 -2 18 -16 29 -57 46 -66
26 -101 63 -101 107 1 62 53 97 146 97 33 0 65 -5 71 -11z m336 -19 c35 -30
57 -84 57 -139 l0 -31 -119 0 c-118 0 -119 0 -114 -22 18 -72 89 -92 186 -53
14 6 17 2 17 -24 0 -37 -24 -50 -105 -58 -39 -3 -60 1 -95 19 -59 31 -83 74
-84 152 -1 117 60 186 165 186 50 0 63 -4 92 -30z m207 4 l0 -26 31 26 c42 35
125 37 157 4 35 -38 42 -74 42 -204 l0 -124 -40 0 -40 0 0 115 c0 66 -5 125
-12 140 -22 48 -97 46 -123 -5 -11 -21 -15 -60 -15 -140 l0 -110 -40 0 -40 0
0 168 c0 93 3 172 7 175 3 4 21 7 40 7 29 0 33 -3 33 -26z m658 -151 l2 -173
-40 0 -40 0 0 176 0 175 38 -3 37 -3 3 -172z m332 149 c32 -33 44 -101 38
-237 l-3 -80 -37 -3 c-35 -3 -38 -1 -38 24 l0 28 -31 -30 c-25 -24 -39 -29
-79 -29 -68 0 -105 35 -105 99 0 72 46 107 158 121 60 8 67 16 41 53 -19 27
-89 30 -134 7 l-30 -16 0 35 c0 43 25 54 123 55 62 1 71 -2 97 -27z m504 22
c10 -4 16 -18 16 -36 0 -28 -1 -29 -32 -22 -71 17 -118 2 -118 -38 0 -13 12
-24 38 -34 103 -41 139 -82 122 -143 -14 -57 -117 -93 -198 -71 -39 10 -42 13
-42 45 l0 34 35 -15 c46 -19 88 -18 115 4 32 26 17 49 -55 81 -67 31 -95 60
-95 102 0 30 33 77 64 89 25 10 127 13 150 4z m-5138 -19 c10 -8 30 -15 44
-15 19 0 26 -5 26 -20 0 -20 -8 -24 -96 -45 -18 -4 -31 -1 -43 13 -17 18 -16
21 10 51 32 36 33 36 59 16z m-116 -15 c0 -5 -7 -10 -15 -10 -8 0 -15 5 -15
10 0 6 7 10 15 10 8 0 15 -4 15 -10z m-1835 -10 c3 -5 1 -10 -4 -10 -6 0 -11
5 -11 10 0 6 2 10 4 10 3 0 8 -4 11 -10z m175 -5 c0 -8 -4 -15 -10 -15 -5 0
-10 7 -10 15 0 8 5 15 10 15 6 0 10 -7 10 -15z m-107 -40 c1 -5 -14 -11 -33
-13 -33 -2 -34 -2 -15 13 21 17 45 17 48 0z m107 -5 c0 -5 -4 -10 -10 -10 -5
0 -10 5 -10 10 0 6 5 10 10 10 6 0 10 -4 10 -10z m1818 -21 c-2 -6 -8 -10 -13
-10 -5 0 -11 4 -13 10 -2 6 4 11 13 11 9 0 15 -5 13 -11z m-1998 -9 c11 -7 7
-10 -17 -10 -18 0 -33 5 -33 10 0 13 30 13 50 0z m1930 6 c0 -3 -4 -8 -10 -11
-5 -3 -10 -1 -10 4 0 6 5 11 10 11 6 0 10 -2 10 -4z m-1856 -21 c14 -11 16
-15 5 -15 -28 0 -59 12 -53 21 8 13 26 11 48 -6z m100 -20 c-4 -8 -8 -15 -10
-15 -2 0 -4 7 -4 15 0 8 4 15 10 15 5 0 7 -7 4 -15z m1806 5 c0 -5 -2 -10 -4
-10 -3 0 -8 5 -11 10 -3 6 -1 10 4 10 6 0 11 -4 11 -10z m-1926 -17 c3 -8 -1
-16 -10 -20 -17 -6 -39 11 -31 24 9 14 35 11 41 -4z m52 -4 c7 -12 -15 -31
-28 -23 -4 3 -8 12 -8 20 0 17 26 19 36 3z m44 -15 c0 -8 -4 -12 -10 -9 -5 3
-10 10 -10 16 0 5 5 9 10 9 6 0 10 -7 10 -16z m30 -3 c0 -6 -4 -13 -10 -16 -5
-3 -10 1 -10 9 0 9 5 16 10 16 6 0 10 -4 10 -9z m1801 -24 c-8 -8 -11 -7 -11
4 0 20 13 34 18 19 3 -7 -1 -17 -7 -23z m-1881 -9 c0 -6 -7 -7 -16 -4 -9 3
-25 6 -37 7 -21 0 -21 1 -2 8 23 9 55 3 55 -11z m1903 -118 c-3 -11 0 -20 6
-20 17 0 13 -14 -9 -38 -21 -22 -57 -31 -44 -11 4 8 0 9 -15 4 -25 -8 -25 -6
-6 31 8 16 15 25 15 21 0 -5 12 1 26 12 33 26 33 26 27 1z m-2424 -37 c1 20
21 23 21 2 0 -7 8 -18 17 -24 10 -5 14 -13 10 -17 -4 -5 -16 -3 -26 3 -14 9
-21 9 -30 0 -10 -9 -16 -8 -27 7 -16 22 -19 40 -5 32 5 -3 12 2 16 12 7 15 9
14 15 -8 5 -16 8 -19 9 -7z m2321 -37 c0 -3 -4 -8 -10 -11 -5 -3 -10 -1 -10 4
0 6 5 11 10 11 6 0 10 -2 10 -4z m86 -31 c-8 -8 -18 -15 -22 -15 -3 0 -1 7 6
15 7 8 17 15 22 15 5 0 3 -7 -6 -15z m-2396 -9 c0 -3 -4 -8 -10 -11 -5 -3 -10
-1 -10 4 0 6 5 11 10 11 6 0 10 -2 10 -4z m2190 -6 c0 -5 -4 -10 -10 -10 -5 0
-10 5 -10 10 0 6 5 10 10 10 6 0 10 -4 10 -10z m90 -10 c0 -5 -4 -10 -10 -10
-5 0 -10 5 -10 10 0 6 5 10 10 10 6 0 10 -4 10 -10z m-2160 -10 c0 -5 -4 -10
-10 -10 -5 0 -10 5 -10 10 0 6 5 10 10 10 6 0 10 -4 10 -10z m2262 -29 c24
-20 23 -48 -1 -61 -25 -13 -33 0 -35 50 -1 39 3 40 36 11z m3228 -81 c0 -38 1
-40 21 -29 37 19 69 -3 69 -49 0 -57 -16 -73 -70 -69 l-45 3 -3 79 c-2 43 -1
84 2 92 11 27 26 11 26 -27z m-1691 -53 c17 -46 31 -86 31 -90 0 -16 -29 -5
-35 13 -5 15 -15 20 -45 20 -29 0 -39 -4 -43 -20 -6 -23 -27 -27 -27 -5 0 8 9
38 21 67 12 29 25 63 30 76 16 41 36 24 68 -61z m709 66 c2 -9 -8 -13 -32 -13
-46 0 -48 -27 -4 -55 47 -30 56 -50 34 -74 -24 -26 -96 -30 -96 -6 0 11 7 14
25 9 33 -8 60 13 43 33 -6 8 -24 21 -40 29 -33 17 -39 66 -10 83 22 14 74 10
80 -6z m167 -6 c31 -26 38 -80 15 -122 -12 -23 -11 -27 6 -40 18 -14 18 -14
-3 -15 -12 0 -25 5 -28 10 -3 6 -22 10 -41 10 -90 0 -118 125 -39 168 31 18
62 14 90 -11z m93 -60 l3 -77 35 0 c21 0 33 -4 29 -10 -3 -5 -26 -10 -51 -10
l-44 0 0 91 c0 68 3 90 13 87 8 -3 13 -31 15 -81z m261 72 c37 -13 51 -35 51
-82 0 -51 -47 -89 -104 -85 l-41 3 -3 74 c-2 41 -1 80 2 88 6 16 52 17 95 2z
m1135 0 c32 -15 50 -59 42 -104 -15 -76 -116 -92 -152 -23 -21 40 -11 91 23
118 29 23 51 25 87 9z m594 0 c-2 -6 -8 -10 -13 -10 -5 0 -11 4 -13 10 -2 6 4
11 13 11 9 0 15 -5 13 -11z m-6828 -3 c0 -11 -19 -15 -25 -6 -3 5 1 10 9 10 9
0 16 -2 16 -4z m5350 -17 c0 -7 8 -18 18 -25 16 -12 16 -13 0 -19 -24 -9 -26
-85 -3 -85 8 0 15 -5 15 -11 0 -6 -12 -9 -27 -7 -26 3 -28 7 -31 51 -2 26 -7
47 -13 47 -14 0 -11 18 8 40 19 22 33 26 33 9z m-1330 -27 c0 -5 -13 -26 -30
-48 -37 -49 -37 -54 0 -54 17 0 30 -4 30 -10 0 -5 -22 -10 -50 -10 -30 0 -50
4 -50 11 0 6 14 29 31 50 l31 39 -26 0 c-25 0 -41 12 -29 24 9 9 93 7 93 -2z
m52 -52 c2 -37 6 -45 23 -45 17 0 21 8 25 49 8 76 30 72 30 -6 l0 -64 -45 -2
c-52 -2 -65 13 -65 76 0 72 27 65 32 -8z m144 49 c4 -8 9 -8 17 0 15 15 27 14
27 -3 0 -7 -9 -16 -20 -19 -16 -4 -20 -14 -20 -51 0 -34 -4 -46 -15 -46 -12 0
-15 14 -15 65 0 60 9 80 26 54z m158 -11 c26 -37 20 -48 -25 -48 -33 0 -40 -3
-37 -17 2 -13 13 -18 36 -18 40 0 36 -19 -5 -23 -39 -4 -63 20 -63 63 0 58 64
86 94 43z m891 6 c11 -12 15 -30 13 -63 l-3 -46 -44 0 c-58 0 -78 26 -42 56
13 10 32 19 43 19 11 0 18 5 15 13 -2 7 -18 11 -37 9 -28 -2 -31 0 -20 13 16
20 54 19 75 -1z m219 0 c10 -10 16 -33 16 -63 l0 -48 -45 -1 c-35 -1 -47 3
-55 18 -8 15 -6 24 10 40 11 11 29 20 41 20 12 0 19 5 16 13 -2 6 -16 11 -31
10 -27 -2 -36 11 -13 20 24 10 46 7 61 -9z m274 4 c7 -7 12 -35 12 -63 l0 -52
-47 1 c-46 1 -48 2 -48 31 0 26 5 31 38 40 32 9 36 13 25 23 -8 6 -24 9 -36 5
-12 -3 -22 -1 -22 5 0 22 59 29 78 10z m122 -1 c0 -8 -10 -13 -21 -13 -32 1
-34 -19 -4 -32 31 -14 41 -37 25 -57 -16 -19 -80 -20 -80 -2 0 9 10 12 30 9
17 -2 30 0 30 5 0 5 -13 19 -30 31 -34 26 -38 46 -12 61 25 15 62 13 62 -2z
m121 3 c11 -6 19 -21 19 -35 0 -22 -5 -25 -33 -25 -19 0 -37 -3 -40 -7 -12
-11 14 -33 39 -33 13 0 24 -4 24 -10 0 -16 -62 -11 -82 7 -24 21 -23 68 2 93
22 22 42 25 71 10z m340 -46 l16 -49 15 49 c14 47 38 75 38 44 0 -33 -39 -113
-55 -113 -16 0 -55 80 -55 113 0 30 25 3 41 -44z m181 39 c10 -9 18 -24 18
-35 0 -14 -8 -18 -41 -18 -33 0 -40 -3 -37 -17 2 -13 13 -18 36 -18 40 0 36
-19 -5 -23 -38 -4 -63 19 -63 59 0 32 30 69 57 69 9 0 25 -7 35 -17z m78 5 c0
-9 3 -9 12 0 16 16 28 15 28 -3 0 -8 -6 -15 -14 -15 -17 0 -26 -22 -26 -66 0
-24 -5 -34 -15 -34 -12 0 -15 13 -15 58 0 32 3 62 7 65 10 11 23 8 23 -5z
m106 -44 c8 -45 18 -43 33 6 11 38 27 57 38 47 2 -3 -5 -33 -18 -67 -15 -42
-27 -60 -37 -58 -17 3 -64 107 -55 121 9 15 32 -15 39 -49z m124 -15 c0 -46
-3 -59 -15 -59 -12 0 -15 13 -15 58 0 32 3 62 6 65 15 15 24 -8 24 -64z m124
55 c9 -8 16 -24 16 -35 0 -16 -7 -19 -41 -19 -33 0 -40 -3 -37 -17 2 -13 13
-18 36 -18 39 0 37 -19 -2 -23 -58 -7 -89 65 -46 108 24 24 53 26 74 4z m69
-20 c5 -16 11 -36 14 -44 3 -9 11 5 20 33 16 56 34 57 47 4 9 -36 26 -51 26
-23 0 29 21 69 30 60 12 -12 -21 -116 -38 -122 -7 -2 -17 9 -22 25 -6 15 -13
35 -16 43 -4 10 -10 1 -18 -25 -18 -62 -40 -57 -60 13 -19 70 -20 75 -4 70 6
-2 16 -17 21 -34z m-5343 -134 c0 -5 -5 -10 -11 -10 -5 0 -7 5 -4 10 3 6 8 10
11 10 2 0 4 -4 4 -10z m-10 -40 c-8 -5 -19 -10 -25 -10 -5 0 -3 5 5 10 8 5 20
10 25 10 6 0 3 -5 -5 -10z m-53 -16 c-3 -3 -12 -4 -19 -1 -8 3 -5 6 6 6 11 1
17 -2 13 -5z m-874 -51 c-7 -2 -19 -2 -25 0 -7 3 -2 5 12 5 14 0 19 -2 13 -5z
m3667 -27 c0 -3 -4 -8 -10 -11 -5 -3 -10 -1 -10 4 0 6 5 11 10 11 6 0 10 -2
10 -4z m1013 -42 c33 8 47 -11 46 -63 -1 -25 -3 -35 -6 -21 -9 60 -14 70 -33
70 -19 0 -24 -10 -33 -70 -3 -14 -4 11 -4 55 0 44 2 67 4 52 4 -24 8 -28 26
-23z m597 20 c0 -21 3 -24 20 -19 32 10 50 -12 50 -61 0 -24 -4 -44 -10 -44
-5 0 -10 21 -10 46 0 41 -2 45 -22 42 -19 -2 -24 -10 -26 -45 -5 -72 -22 -48
-22 32 0 43 4 75 10 75 6 0 10 -12 10 -26z m177 -86 c-2 -24 -4 -7 -4 37 0 44
2 63 4 43 2 -21 2 -57 0 -80z m363 37 c0 -43 -4 -75 -10 -75 -6 0 -10 32 -10
75 0 43 4 75 10 75 6 0 10 -32 10 -75z m-1610 35 c16 -16 17 -20 5 -20 -22 0
-20 -66 3 -79 15 -9 15 -10 -5 -11 -27 0 -39 38 -34 113 1 22 6 22 31 -3z
m1013 -25 c-18 -13 -11 -63 10 -78 8 -5 5 -7 -8 -5 -16 3 -21 12 -23 46 -2 23
-7 42 -13 42 -5 0 -4 9 3 20 11 18 14 18 30 3 16 -15 17 -17 1 -28z m429 25
c19 -17 19 -20 5 -20 -24 0 -24 -65 1 -79 15 -9 15 -10 -5 -11 -18 0 -23 7
-28 38 -7 41 -8 49 -6 75 1 22 7 22 33 -3z m-1884 -9 c18 -11 28 -86 13 -95
-7 -5 -11 6 -11 34 0 28 -5 43 -16 47 -21 8 -36 -9 -44 -54 -8 -37 -8 -37 -9
14 -1 46 1 52 22 56 12 2 24 5 27 5 3 1 11 -2 18 -7z m186 -7 c35 -35 9 -101
-37 -92 -24 5 -27 2 -27 -24 0 -17 -4 -27 -10 -23 -5 3 -10 38 -10 77 0 58 3
69 15 65 8 -4 17 -2 20 3 9 15 32 12 49 -6z m97 6 c14 -8 19 -21 19 -54 l0
-44 -37 1 c-33 2 -38 5 -38 27 0 17 7 26 24 30 36 8 39 30 4 30 -22 0 -25 2
-13 10 19 12 17 12 41 0z m86 -11 c-11 -7 -17 -22 -17 -44 0 -19 -4 -37 -10
-40 -6 -4 -10 13 -10 44 0 44 3 50 23 53 29 5 36 -1 14 -13z m187 5 c17 -17
22 -94 7 -94 -6 0 -11 19 -13 43 -2 34 -7 42 -23 42 -16 0 -21 -8 -23 -42 -4
-59 -22 -54 -22 6 0 43 3 50 23 54 12 2 25 5 29 6 4 0 14 -6 22 -15z m107 6
c10 -6 19 -20 19 -30 0 -16 -7 -20 -35 -20 -19 0 -35 -4 -35 -9 0 -17 29 -33
51 -26 14 5 19 4 15 -4 -10 -16 -52 -13 -70 5 -22 21 -20 50 4 74 23 23 25 23
51 10z m86 -11 c-12 -7 -17 -22 -17 -49 0 -22 -4 -40 -10 -40 -5 0 -10 22 -10
49 0 44 3 50 23 53 29 5 36 -1 14 -13z m88 11 c3 -5 -3 -10 -14 -10 -28 0 -26
-10 6 -36 24 -19 26 -24 14 -38 -14 -16 -61 -23 -61 -8 0 5 10 8 21 8 31 -1
34 19 4 32 -29 13 -33 37 -7 51 22 13 29 13 37 1z m286 0 c13 -7 19 -21 19
-43 0 -40 -15 -57 -51 -57 -22 0 -28 -5 -32 -27 -2 -16 -5 7 -6 49 -1 72 0 77
22 81 12 2 23 5 25 6 2 0 12 -4 23 -9z m673 4 c18 -7 32 -66 20 -91 -6 -13 -9
-6 -13 27 -5 36 -10 45 -26 45 -16 0 -21 -8 -23 -35 -6 -58 -22 -60 -22 -3 0
46 3 52 23 56 12 2 23 5 24 6 1 0 8 -2 17 -5z m187 -4 c10 -6 19 -20 19 -30 0
-16 -7 -20 -35 -20 -19 0 -35 -4 -35 -9 0 -15 29 -33 45 -27 8 3 15 1 15 -4 0
-6 -13 -10 -30 -10 -48 0 -66 54 -30 90 23 23 25 23 51 10z m121 -32 c-6 -6
-7 0 -4 19 5 21 7 23 10 9 2 -10 0 -22 -6 -28z m-2215 -45 c-2 -16 -4 -3 -4
27 0 30 2 43 4 28 2 -16 2 -40 0 -55z m1120 0 c-2 -16 -4 -3 -4 27 0 30 2 43
4 28 2 -16 2 -40 0 -55z m228 47 c8 -39 22 -38 30 1 9 38 26 33 38 -12 l10
-34 11 32 c14 41 31 57 22 21 -19 -81 -38 -95 -51 -38 -8 36 -21 31 -30 -10
-9 -42 -21 -37 -39 17 -19 55 -19 53 -7 53 5 0 12 -13 16 -30z m155 -20 c0
-27 -4 -50 -10 -50 -5 0 -10 23 -10 50 0 28 5 50 10 50 6 0 10 -22 10 -50z
m-5942 -35 c-6 -27 1 -32 20 -13 9 9 12 7 12 -10 0 -15 -6 -22 -19 -22 -11 0
-21 -6 -24 -12 -3 -10 -7 -10 -20 1 -20 16 -21 34 -5 61 19 29 41 26 36 -5z
m2386 0 c22 -33 20 -58 -4 -73 -17 -10 -21 -10 -26 2 -3 8 -12 12 -21 9 -24
-9 -31 16 -14 53 18 40 42 44 65 9z m-1043 2 c-1 -12 -15 -9 -19 4 -3 6 1 10
8 8 6 -3 11 -8 11 -12z m1010 -117 c21 -12 49 -60 49 -87 0 -19 -58 -83 -74
-83 -7 0 -8 3 -1 8 17 12 45 69 45 90 0 11 -7 25 -16 32 -17 15 -38 50 -29 50
4 0 15 -5 26 -10z m-16 -70 c-6 -10 -110 -50 -128 -50 -7 0 -3 6 8 12 11 6 22
14 25 18 19 26 110 44 95 20z m-945 -15 c0 -22 -4 -25 -39 -25 -42 0 -57 11
-47 35 3 10 20 15 46 15 36 0 40 -2 40 -25z m70 15 c0 -5 -4 -10 -10 -10 -5 0
-10 5 -10 10 0 6 5 10 10 10 6 0 10 -4 10 -10z m-360 -85 c12 -31 18 -31 30 0
6 15 15 23 24 19 19 -7 30 -53 16 -69 -6 -7 -8 -20 -4 -29 7 -18 -20 -23 -31
-6 -3 6 -1 10 6 10 7 0 5 8 -6 20 -17 19 -19 19 -36 4 -15 -14 -21 -14 -34 -4
-18 15 -18 20 -5 54 12 33 28 33 40 1z m144 -4 c13 -23 13 -31 2 -46 -10 -14
-16 -15 -34 -6 -23 12 -30 41 -11 41 5 0 7 5 3 11 -3 6 0 15 7 20 19 12 17 13
33 -20z m126 19 c0 -6 -13 -10 -30 -10 -39 0 -39 14 0 17 17 1 30 -2 30 -7z
m65 0 c-3 -5 -10 -10 -16 -10 -5 0 -9 5 -9 10 0 6 7 10 16 10 8 0 12 -4 9 -10z
m983 -37 c4 -29 -33 -32 -48 -4 -15 29 -13 33 18 29 19 -2 28 -9 30 -25z
m-2012 8 c-3 -5 1 -11 9 -15 8 -3 15 -1 15 4 0 15 28 12 33 -2 3 -10 9 -10 25
-1 18 11 23 10 31 -5 8 -14 12 -15 22 -4 17 16 29 15 29 -3 0 -17 25 -20 35
-5 9 15 25 12 25 -4 0 -8 6 -16 13 -19 9 -3 7 -10 -6 -23 -15 -16 -20 -17 -38
-6 -15 10 -24 10 -33 2 -10 -7 -17 -6 -26 5 -10 12 -16 13 -27 3 -12 -10 -18
-9 -29 6 -11 16 -16 17 -30 5 -14 -11 -17 -10 -26 5 -8 14 -12 15 -24 5 -21
-17 -37 2 -28 35 3 14 13 26 21 26 8 0 12 -4 9 -9z m1534 -42 c0 -24 -18 -33
-35 -19 -11 9 -16 7 -25 -10 -11 -20 -13 -21 -30 -5 -17 15 -19 15 -29 -2 -8
-15 -13 -16 -30 -6 -13 8 -22 9 -26 2 -4 -5 -16 -7 -26 -4 -24 8 -49 -11 -49
-36 0 -11 -4 -19 -9 -19 -5 0 -7 9 -4 20 3 13 -1 26 -11 33 -14 10 -15 16 -4
39 15 32 23 35 36 12 8 -14 10 -14 26 1 13 13 20 15 29 6 13 -13 41 -15 32 -2
-8 15 15 25 28 12 16 -16 37 -14 37 4 0 17 16 20 25 5 3 -5 14 -10 23 -9 12 0
13 2 3 6 -11 5 -11 7 0 14 16 10 39 -15 39 -42z m-915 -18 c3 -5 1 -12 -5 -16
-13 -8 -80 5 -80 16 0 12 77 12 85 0z m-695 -11 c0 -5 -4 -10 -10 -10 -5 0
-10 5 -10 10 0 6 5 10 10 10 6 0 10 -4 10 -10z m762 -2 c-9 -9 -15 -9 -24 0
-9 9 -7 12 12 12 19 0 21 -3 12 -12z m148 2 c0 -5 -6 -10 -14 -10 -8 0 -18 5
-21 10 -3 6 3 10 14 10 12 0 21 -4 21 -10z m1116 -43 c-4 -19 -12 -25 -30 -23
-20 1 -22 4 -13 16 16 20 41 39 46 35 2 -2 1 -15 -3 -28z m-76 -37 c-8 -5 -24
-9 -35 -9 l-20 0 20 9 c11 5 27 9 35 9 13 1 13 0 0 -9z m105 -80 c0 -14 4 -31
9 -38 13 -20 -4 -29 -18 -10 -14 20 -28 14 -19 -8 3 -8 1 -14 -5 -14 -21 0
-24 59 -5 93 10 18 38 1 38 -23z m-2335 -76 c0 -4 -11 -17 -25 -30 -29 -26
-32 -42 -10 -50 14 -6 22 -44 9 -44 -13 0 -54 55 -44 58 6 2 10 13 10 24 0 12
8 27 18 34 18 14 42 18 42 8z m-83 -36 c-3 -8 -6 -5 -6 6 -1 11 2 17 5 13 3
-3 4 -12 1 -19z m2373 12 c0 -5 -4 -10 -10 -10 -5 0 -10 5 -10 10 0 6 5 10 10
10 6 0 10 -4 10 -10z m52 -25 c3 -14 1 -25 -3 -25 -5 0 -9 7 -9 15 0 8 -4 15
-10 15 -5 0 -10 -6 -10 -12 0 -7 36 -33 80 -56 62 -33 84 -51 94 -75 7 -18 9
-34 4 -35 -4 -2 -37 13 -73 33 -50 28 -69 34 -83 26 -9 -6 -12 -11 -7 -11 6 0
17 -4 25 -10 12 -7 12 -12 -4 -29 -11 -12 -28 -21 -39 -21 -16 0 -18 4 -12 28
4 15 8 36 9 48 2 11 6 27 11 33 4 7 -4 5 -19 -4 -25 -17 -26 -17 -26 3 0 38
44 114 61 106 4 -2 9 -15 11 -29z m-1562 -25 c5 0 11 6 14 13 3 6 4 1 3 -12
-3 -31 -34 -52 -47 -31 -5 8 -6 19 -2 25 4 5 7 13 8 18 4 19 7 21 11 5 2 -10
8 -18 13 -18z m683 -1 c6 -23 -1 -49 -13 -49 -11 0 -34 29 -36 46 -1 8 2 14 7
14 5 0 9 -4 9 -10 0 -5 4 -10 10 -10 5 0 7 7 4 15 -4 8 -2 15 4 15 5 0 12 -9
15 -21z m738 -2 c-1 -12 -15 -9 -19 4 -3 6 1 10 8 8 6 -3 11 -8 11 -12z
m-2106 -7 c3 -5 -1 -10 -10 -10 -9 0 -13 5 -10 10 3 6 8 10 10 10 2 0 7 -4 10
-10z m2070 -10 c19 -7 18 -9 -8 -19 -16 -6 -32 -9 -37 -6 -4 3 -11 -3 -14 -12
-5 -12 -10 -13 -18 -5 -8 8 -5 16 13 31 26 22 34 24 64 11z m-2168 -37 c-3
-10 -5 -4 -5 12 0 17 2 24 5 18 2 -7 2 -21 0 -30z m30 -10 c-3 -10 -5 -4 -5
12 0 17 2 24 5 18 2 -7 2 -21 0 -30z m33 0 c0 -32 -5 -28 -14 10 -4 19 -3 26
4 22 5 -3 10 -18 10 -32z m100 27 c0 -5 -4 -10 -10 -10 -5 0 -10 5 -10 10 0 6
5 10 10 10 6 0 10 -4 10 -10z m-212 -19 c3 -8 -1 -12 -9 -9 -7 2 -15 10 -17
17 -3 8 1 12 9 9 7 -2 15 -10 17 -17z m468 -11 c8 0 14 -4 14 -10 0 -5 -6 -10
-14 -10 -19 0 -28 -14 -20 -34 5 -14 8 -14 21 -1 8 8 20 15 26 15 36 -1 92
-21 115 -42 14 -12 22 -17 17 -9 -6 11 -3 13 16 8 13 -4 29 -7 36 -7 7 0 10
-7 7 -15 -4 -9 0 -15 10 -15 9 0 16 5 16 10 0 6 5 10 10 10 6 0 10 -6 10 -14
0 -7 9 -16 20 -19 12 -3 20 0 20 8 0 8 8 11 20 8 11 -3 20 -8 20 -12 0 -3 28
-6 61 -6 34 1 72 -5 85 -11 14 -8 49 -11 86 -8 42 2 65 -1 71 -9 7 -9 10 -9
14 1 6 14 53 17 53 2 0 -5 -9 -10 -20 -10 -18 0 -25 -16 -21 -42 0 -5 -8 -8
-19 -8 -11 0 -19 6 -18 13 2 7 -9 13 -24 15 -22 3 -27 0 -22 -12 4 -11 1 -16
-10 -16 -11 0 -16 7 -14 18 3 18 9 17 -142 27 -122 7 -203 15 -228 20 -12 3
-32 1 -43 -6 -19 -10 -19 -11 -4 -23 16 -12 15 -14 -10 -34 -21 -17 -31 -19
-41 -11 -14 11 -15 10 -18 -13 -2 -20 -23 -19 -29 2 -3 11 -13 20 -24 20 -15
0 -16 -2 -3 -10 8 -5 12 -10 8 -10 -3 0 -14 -3 -24 -7 -13 -5 -16 -3 -11 10 3
9 2 19 -3 22 -14 8 -12 62 1 71 6 3 15 1 19 -6 5 -8 16 -9 30 -5 14 4 25 3 30
-5 4 -7 17 -9 33 -4 37 9 35 27 -2 19 -17 -3 -32 -2 -36 4 -3 6 -19 11 -35 11
-20 0 -31 6 -35 21 -7 20 -7 20 -21 2 -13 -17 -15 -17 -30 2 -11 14 -18 16
-21 8 -7 -20 -20 -15 -26 9 -4 14 0 26 11 34 16 13 16 13 0 14 -10 0 -18 5
-18 10 0 6 3 9 8 9 15 -3 72 24 73 34 0 8 2 8 6 0 2 -7 11 -13 19 -13z m1814
-5 c0 -31 -20 -33 -21 -2 -1 20 -2 19 -14 -8 l-14 -30 -1 26 c0 30 7 39 32 39
13 0 18 -7 18 -25z m-1450 11 c0 -3 -4 -8 -10 -11 -5 -3 -10 -1 -10 4 0 6 5
11 10 11 6 0 10 -2 10 -4z m975 -16 c-12 -20 27 -33 81 -26 50 6 56 4 61 -14
3 -11 10 -20 15 -20 5 0 8 -10 6 -22 -2 -16 -10 -23 -24 -23 -12 -1 -28 -6
-36 -12 -8 -7 -24 -10 -36 -6 -25 6 -29 -4 -8 -21 18 -14 21 -32 11 -73 -6
-26 -13 -33 -31 -33 -13 0 -24 4 -24 9 0 5 -11 12 -25 15 -34 9 -41 29 -19 55
12 14 25 19 41 15 13 -4 23 -2 23 4 0 16 -39 25 -55 12 -18 -15 -22 -5 -20 63
0 39 5 61 15 67 8 6 11 10 7 10 -5 0 -5 5 -2 10 4 6 11 8 16 4 5 -3 7 -9 4
-14z m310 10 c-3 -5 -15 -10 -25 -10 -10 0 -22 5 -25 10 -4 6 7 10 25 10 18 0
29 -4 25 -10z m-2115 -20 c0 -5 -4 -10 -10 -10 -5 0 -10 5 -10 10 0 6 5 10 10
10 6 0 10 -4 10 -10z m335 -50 c2 -22 -11 -27 -18 -7 -5 15 3 40 11 32 3 -3 6
-14 7 -25z m835 -25 c-4 -11 -5 -26 -3 -32 3 -7 -1 -13 -8 -13 -7 0 -10 3 -7
6 4 3 0 17 -7 31 -10 19 -11 30 -2 44 10 16 12 16 23 1 7 -9 9 -25 4 -37z
m920 45 c0 -5 -4 -10 -10 -10 -5 0 -10 5 -10 10 0 6 5 10 10 10 6 0 10 -4 10
-10z m-2080 -4 c0 -3 -4 -8 -10 -11 -5 -3 -10 -1 -10 4 0 6 5 11 10 11 6 0 10
-2 10 -4z m2000 -33 c0 -29 -12 -24 -17 7 -2 11 2 20 7 20 6 0 10 -12 10 -27z
m-291 -61 c1 -7 -10 -12 -26 -12 -16 0 -44 -2 -63 -4 -69 -9 -186 -17 -250
-18 -80 -1 -100 -5 -100 -24 0 -8 -7 -14 -15 -14 -9 0 -12 6 -9 15 8 20 -39
20 -59 0 -13 -12 -15 -12 -20 5 -3 13 3 24 19 35 27 17 64 20 64 4 0 -6 6 -7
12 -2 7 4 26 6 41 4 15 -1 34 3 42 9 8 7 26 9 40 6 14 -4 34 -1 45 6 18 11 23
10 34 -5 12 -15 14 -16 20 -2 3 8 15 15 26 15 11 0 20 6 21 13 1 6 4 1 8 -13
l7 -24 22 22 c11 11 24 17 27 12 10 -16 38 -12 31 5 -7 19 30 21 38 3 4 -10 9
-8 18 5 12 16 13 16 20 -5 3 -13 6 -29 7 -36z m-1769 -11 c0 -11 -4 -23 -10
-26 -6 -4 -10 5 -10 19 0 14 5 26 10 26 6 0 10 -9 10 -19z m2480 -27 c0 -21
-4 -33 -10 -29 -5 3 -10 19 -10 36 0 16 5 29 10 29 6 0 10 -16 10 -36z m-2405
16 c-3 -5 -12 -10 -18 -10 -7 0 -6 4 3 10 19 12 23 12 15 0z m71 -41 c19 -11
38 -18 44 -14 5 3 10 -1 10 -9 0 -9 5 -16 10 -16 6 0 10 -7 10 -15 0 -8 -4
-15 -10 -15 -5 0 -10 5 -10 12 0 6 -3 9 -6 6 -7 -8 -107 46 -112 61 -6 18 28
13 64 -10z m-115 -105 c22 -23 22 -24 4 -44 -10 -11 -21 -20 -26 -20 -13 0
-29 62 -29 115 0 68 13 80 22 20 4 -28 16 -57 29 -71z m389 107 c0 -6 -4 -13
-10 -16 -5 -3 -10 1 -10 9 0 9 5 16 10 16 6 0 10 -4 10 -9z m1610 -24 c0 -21
-12 -28 -27 -16 -19 16 -16 29 7 29 11 0 20 -6 20 -13z m310 3 c0 -5 -5 -10
-11 -10 -5 0 -7 5 -4 10 3 6 8 10 11 10 2 0 4 -4 4 -10z m140 -15 c0 -8 5 -15
10 -15 15 0 12 -31 -9 -96 -17 -51 -18 -61 -5 -75 8 -8 11 -19 7 -22 -11 -12
-40 -7 -53 8 -12 14 -15 14 -31 -1 -14 -13 -29 -15 -64 -10 -25 4 -45 10 -45
14 0 4 19 18 41 31 l41 23 -28 19 c-48 31 -61 25 -66 -27 -2 -25 0 -48 4 -50
5 -3 8 -23 8 -44 0 -21 5 -42 10 -45 15 -9 1 -27 -16 -21 -8 3 -14 -1 -14 -9
0 -8 -4 -15 -10 -15 -5 0 -10 7 -10 15 0 8 -5 15 -11 15 -6 0 -8 -9 -4 -20 3
-11 2 -20 -3 -20 -6 0 -12 5 -14 12 -4 10 -14 9 -48 -1 -38 -11 -44 -11 -52 3
-8 15 -37 12 -48 -6 -7 -10 -103 26 -108 41 -2 6 9 12 25 13 47 3 57 5 88 18
17 7 41 15 55 19 22 7 20 9 -23 19 -26 7 -61 21 -78 31 l-30 19 28 7 c68 17
202 68 198 76 -10 15 33 31 54 19 13 -7 22 -7 26 0 3 5 -1 10 -9 10 -9 0 -16
5 -16 10 0 13 27 13 35 0 4 -6 16 -8 27 -4 14 4 18 2 14 -5 -5 -7 5 -11 30
-11 31 0 36 -3 31 -20 -7 -29 0 -25 23 13 11 17 20 47 20 65 0 17 5 32 10 32
6 0 10 -7 10 -15z m-2370 -5 c0 -5 -2 -10 -4 -10 -3 0 -8 5 -11 10 -3 6 -1 10
4 10 6 0 11 -4 11 -10z m2198 -8 c4 -13 -76 -54 -83 -41 -8 13 18 50 32 45 7
-3 15 -1 19 5 7 12 26 7 32 -9z m-2123 -38 c-2 -7 4 -10 17 -6 15 3 19 1 16
-9 -5 -16 42 -40 147 -74 67 -22 69 -23 43 -33 -14 -6 -29 -16 -33 -22 -4 -6
-15 -8 -25 -5 -27 8 -36 -14 -12 -31 20 -13 20 -14 0 -53 l-19 -39 -41 16
c-31 12 -43 13 -46 4 -2 -7 -8 -12 -14 -12 -6 0 -8 7 -4 15 3 8 1 15 -4 15 -6
0 -10 -4 -10 -10 0 -5 -4 -10 -10 -10 -5 0 -10 7 -10 15 0 9 -6 12 -15 9 -16
-7 -21 11 -6 20 5 3 7 24 4 46 -3 22 -2 40 3 40 5 0 8 19 6 43 -5 47 -21 75
-32 57 -5 -8 -15 -1 -29 19 -22 31 -17 42 8 19 11 -11 12 -9 7 8 -7 21 -6 22
28 5 20 -9 34 -21 31 -27z m460 36 c-3 -5 -10 -10 -16 -10 -5 0 -9 5 -9 10 0
6 7 10 16 10 8 0 12 -4 9 -10z m1215 0 c0 -5 -7 -10 -15 -10 -8 0 -15 5 -15
10 0 6 7 10 15 10 8 0 15 -4 15 -10z m565 -10 c3 -5 1 -10 -4 -10 -6 0 -11 5
-11 10 0 6 2 10 4 10 3 0 8 -4 11 -10z m-2348 -48 c-16 -16 -37 -9 -37 12 0 9
9 12 26 8 23 -4 24 -6 11 -20z m1620 12 c-3 -3 -12 -4 -19 -1 -8 3 -5 6 6 6
11 1 17 -2 13 -5z m366 -29 l18 -25 -29 0 c-26 0 -29 3 -24 25 5 31 12 31 35
0z m-1941 -52 c40 -27 40 -28 17 -34 -69 -20 -116 5 -82 43 20 22 16 23 65 -9z
m968 -28 c0 -19 -20 -29 -32 -17 -8 8 -7 16 2 26 14 17 30 12 30 -9z m68 -2
c-2 -10 -10 -18 -18 -18 -8 0 -16 8 -18 18 -2 12 3 17 18 17 15 0 20 -5 18
-17z m70 0 c-5 -26 -38 -29 -38 -4 0 15 6 21 21 21 14 0 19 -5 17 -17z m70 0
c-5 -26 -38 -29 -38 -4 0 15 6 21 21 21 14 0 19 -5 17 -17z m67 -3 c0 -8 -8
-16 -17 -18 -13 -2 -18 3 -18 18 0 15 5 20 18 18 9 -2 17 -10 17 -18z m-800
-20 c3 -5 -3 -10 -14 -10 -11 0 -23 5 -26 10 -3 6 3 10 14 10 11 0 23 -4 26
-10z m515 -24 c0 -23 -17 -28 -61 -21 -48 8 -43 20 6 17 19 -2 35 2 35 8 0 5
5 10 10 10 6 0 10 -6 10 -14z m74 -1 c7 -20 33 -19 46 3 10 16 10 16 20 0 13
-22 39 -23 46 -3 12 29 24 14 24 -27 0 -62 -9 -88 -31 -88 -11 0 -19 -4 -19
-10 0 -5 26 -7 63 -5 34 3 134 10 222 16 88 6 209 17 269 25 167 21 160 23
151 -33 -4 -27 -8 -49 -9 -50 -10 -10 -347 -46 -478 -50 l-168 -6 0 -25 c0
-24 -1 -24 -18 -9 -22 20 -48 22 -56 5 -5 -10 -7 -10 -12 0 -7 14 -40 16 -49
2 -10 -17 -25 -11 -25 9 0 17 -11 20 -97 26 -206 13 -506 53 -534 71 -15 9
-11 94 5 94 8 0 65 -9 128 -19 115 -20 310 -39 473 -46 50 -2 78 -1 63 1 -16
3 -28 11 -29 17 0 7 -4 33 -8 59 -4 27 -6 50 -3 53 10 9 20 5 26 -10z m202
-12 c-10 -10 -19 5 -10 18 6 11 8 11 12 0 2 -7 1 -15 -2 -18z m-426 8 c0 -4
-11 -6 -25 -3 -14 2 -25 6 -25 8 0 2 11 4 25 4 14 0 25 -4 25 -9z m-456 -49
c11 -6 -60 -40 -86 -41 -22 -1 -22 3 -2 35 14 21 22 24 48 18 17 -3 35 -9 40
-12z m406 3 c0 -15 38 -19 153 -15 63 2 60 -16 -4 -23 -68 -8 -141 2 -156 21
-16 19 -17 32 -3 32 6 0 10 -7 10 -15z m105 5 c3 -5 -1 -10 -10 -10 -9 0 -13
5 -10 10 3 6 8 10 10 10 2 0 7 -4 10 -10z m-888 -102 c-3 -8 -6 -5 -6 6 -1 11
2 17 5 13 3 -3 4 -12 1 -19z m984 -111 c-13 -13 -26 -3 -16 12 3 6 11 8 17 5
6 -4 6 -10 -1 -17z m279 1 c0 -16 -3 -19 -11 -11 -6 6 -8 16 -5 22 11 17 16
13 16 -11z m-1240 -48 c0 -11 -4 -20 -10 -20 -5 0 -10 9 -10 20 0 11 5 20 10
20 6 0 10 -9 10 -20z m430 11 c0 -5 -3 -23 -6 -40 -7 -34 -24 -42 -24 -11 0
11 4 20 9 20 5 0 7 9 4 20 -3 11 0 20 6 20 6 0 11 -4 11 -9z m54 -49 c-6 -28
-24 -46 -24 -23 0 29 14 71 22 64 4 -5 5 -24 2 -41z m1306 24 c0 -8 -4 -18
-10 -21 -5 -3 -10 3 -10 14 0 12 5 21 10 21 6 0 10 -6 10 -14z m-60 -14 c0
-10 5 -23 12 -30 9 -9 9 -15 0 -24 -15 -15 -19 -11 -27 35 -5 25 -4 37 4 37 6
0 11 -8 11 -18z m-1193 -22 c0 -18 -6 -30 -14 -30 -16 0 -17 14 -1 40 7 11 13
20 14 20 0 0 1 -13 1 -30z m1266 -27 c-4 -10 -9 -11 -16 -4 -5 5 -7 18 -3 28
6 14 9 15 16 4 4 -8 6 -21 3 -28z m-1407 -130 c-7 -17 -8 -17 -17 0 -12 21 -2
44 13 29 6 -6 8 -19 4 -29z m1344 -28 c0 -14 -4 -25 -10 -25 -5 0 -10 11 -10
25 0 14 5 25 10 25 6 0 10 -11 10 -25z m-630 -44 c0 -11 -4 -23 -10 -26 -6 -4
-10 5 -10 19 0 14 5 26 10 26 6 0 10 -9 10 -19z m-1135 -50 c3 -5 1 -12 -5
-16 -5 -3 -10 1 -10 9 0 18 6 21 15 7z m805 -52 c0 -10 -4 -19 -10 -19 -5 0
-10 12 -10 26 0 14 4 23 10 19 6 -3 10 -15 10 -26z m665 -28 c-10 -26 -27 4
-19 34 l7 29 9 -24 c5 -13 6 -30 3 -39z m837 7 c-9 -9 -12 -4 -11 22 0 33 1
34 11 12 8 -17 8 -26 0 -34z m-1915 -170 c-3 -8 -6 -5 -6 6 -1 11 2 17 5 13 3
-3 4 -12 1 -19z"/>
<path d="M2325 4430 c-4 -6 7 -10 25 -10 18 0 29 4 25 10 -3 6 -15 10 -25 10
-10 0 -22 -4 -25 -10z"/>
<path d="M2938 3283 c7 -3 16 -2 19 1 4 3 -2 6 -13 5 -11 0 -14 -3 -6 -6z"/>
<path d="M2842 3125 c0 -16 2 -22 5 -12 2 9 2 23 0 30 -3 6 -5 -1 -5 -18z"/>
<path d="M2180 3100 c0 -11 -5 -20 -11 -20 -8 0 -8 -4 0 -14 13 -16 -2 -32
-19 -21 -5 3 -10 -1 -10 -9 0 -9 3 -15 8 -13 4 1 7 -2 7 -8 0 -5 -15 -10 -32
-10 -31 1 -33 -1 -33 -32 l0 -33 214 0 c118 0 221 -3 229 -6 17 -6 27 23 20
60 -4 21 -8 24 -19 15 -15 -12 -37 -3 -28 12 7 13 -29 49 -49 49 -8 0 -19 12
-25 26 -7 14 -17 22 -22 19 -15 -10 -210 -12 -210 -3 0 5 -4 8 -10 8 -5 0 -10
-9 -10 -20z"/>
<path d="M2918 3082 c-21 -3 -30 -11 -36 -35 -11 -40 -7 -47 24 -47 15 0 24
-6 24 -15 0 -8 5 -15 10 -15 6 0 10 6 10 14 0 8 6 16 14 19 10 4 13 16 11 34
-2 15 -4 31 -4 34 -1 10 -23 15 -53 11z"/>
<path d="M2960 2967 c0 -9 -6 -16 -12 -14 -7 1 -14 -8 -16 -20 -5 -36 25 -28
33 8 4 17 4 33 1 36 -3 4 -6 -1 -6 -10z"/>
<path d="M2950 2889 c0 -5 -4 -8 -8 -5 -4 2 -14 1 -22 -5 -11 -6 -8 -9 13 -9
17 0 27 5 27 15 0 8 -2 15 -5 15 -3 0 -5 -5 -5 -11z"/>
<path d="M2069 2875 c-1 0 -10 -39 -16 -67 -4 -21 -1 -28 11 -28 14 0 14 -3 4
-21 -11 -17 -10 -22 6 -35 21 -15 90 -18 367 -15 l86 1 11 39 c7 21 12 59 12
85 l0 46 -240 -2 c-132 -2 -240 -3 -241 -3z"/>
<path d="M2940 2840 c0 -5 5 -10 11 -10 5 0 7 5 4 10 -3 6 -8 10 -11 10 -2 0
-4 -4 -4 -10z"/>
<path d="M2140 2647 c0 -22 26 -52 34 -39 9 15 246 17 246 2 0 -16 47 -11 54
6 17 43 14 44 -164 44 -133 0 -170 -3 -170 -13z"/>
<path d="M2095 2610 c-3 -5 -1 -10 4 -10 6 0 11 5 11 10 0 6 -2 10 -4 10 -3 0
-8 -4 -11 -10z"/>
<path d="M1730 2509 c0 -5 5 -7 10 -4 6 3 10 8 10 11 0 2 -4 4 -10 4 -5 0 -10
-5 -10 -11z"/>
<path d="M2924 2489 c-3 -6 -1 -16 5 -22 8 -8 11 -5 11 11 0 24 -5 28 -16 11z"/>
<path d="M1775 2470 c3 -5 8 -10 11 -10 2 0 4 5 4 10 0 6 -5 10 -11 10 -5 0
-7 -4 -4 -10z"/>
<path d="M2225 2470 c-13 -22 9 -30 82 -30 64 0 74 2 69 16 -3 9 -6 18 -6 20
0 9 -139 3 -145 -6z"/>
<path d="M2876 2431 c-3 -5 -16 -7 -28 -3 -14 3 -19 2 -14 -6 4 -7 13 -12 20
-12 16 0 55 29 39 30 -6 0 -14 -4 -17 -9z"/>
<path d="M2925 2429 c-10 -15 3 -25 16 -12 7 7 7 13 1 17 -6 3 -14 1 -17 -5z"/>
<path d="M4748 3214 c-5 -4 -8 -83 -8 -176 l0 -168 58 0 c119 0 186 66 185
181 -1 68 -23 114 -68 141 -32 18 -155 35 -167 22z"/>
<path d="M5240 3155 c0 -74 7 -82 66 -71 68 13 96 74 54 116 -15 15 -33 20
-70 20 l-50 0 0 -65z"/>
<path d="M5240 2946 l0 -76 58 0 c48 0 62 4 80 23 27 28 28 67 4 97 -13 16
-32 23 -80 27 l-62 6 0 -77z"/>
<path d="M6821 3089 c-29 -11 -50 -37 -51 -61 0 -16 10 -18 75 -18 67 0 75 2
75 19 0 24 -29 58 -55 64 -11 3 -31 1 -44 -4z"/>
<path d="M8028 2961 c-47 -10 -68 -27 -68 -57 0 -25 33 -54 62 -54 30 0 68 43
75 83 6 41 4 42 -69 28z"/>
<path d="M6765 2494 c-18 -18 -19 -46 -3 -62 18 -18 36 -15 48 8 22 41 -14 84
-45 54z"/>
<path d="M4996 2508 c-9 -35 -8 -38 18 -38 23 0 24 2 15 30 -13 36 -24 38 -33
8z"/>
<path d="M5840 2530 c-19 -35 -8 -83 22 -99 24 -14 28 -14 47 3 24 21 29 84 9
104 -20 20 -66 15 -78 -8z"/>
<path d="M6222 2488 l3 -63 30 3 c36 4 55 26 55 63 0 36 -24 59 -61 59 l-30 0
3 -62z"/>
<path d="M7344 2525 c-27 -42 0 -105 45 -105 21 0 51 41 51 69 0 59 -65 83
-96 36z"/>
<path d="M5513 2503 c-22 -8 -14 -23 13 -23 15 0 24 5 22 12 -5 14 -18 18 -35
11z"/>
<path d="M6394 2449 c-9 -15 12 -33 30 -26 9 4 16 13 16 22 0 17 -35 21 -46 4z"/>
<path d="M6614 2449 c-9 -15 12 -33 30 -26 9 4 16 13 16 22 0 17 -35 21 -46 4z"/>
<path d="M6893 2445 c-3 -9 -2 -19 1 -23 8 -8 38 10 44 26 6 18 -38 14 -45 -3z"/>
<path d="M7140 2495 c-11 -13 -8 -15 20 -15 28 0 31 2 20 15 -7 8 -16 15 -20
15 -4 0 -13 -7 -20 -15z"/>
<path d="M7663 2503 c-22 -8 -14 -23 13 -23 15 0 24 5 22 12 -5 14 -18 18 -35
11z"/>
<path d="M8090 2495 c-11 -13 -9 -15 15 -15 16 0 25 5 23 12 -7 19 -24 20 -38
3z"/>
<path d="M5827 2164 c-12 -13 -8 -51 8 -64 21 -18 47 5 43 39 -3 26 -35 41
-51 25z"/>
<path d="M5934 2119 c-3 -6 -2 -15 3 -20 13 -13 43 -1 43 17 0 16 -36 19 -46
3z"/>
<path d="M6317 2164 c-10 -11 3 -24 24 -24 10 0 19 7 19 15 0 15 -31 21 -43 9z"/>
<path d="M6770 2155 c-10 -12 -10 -21 -2 -40 7 -14 16 -25 21 -25 12 0 41 28
41 40 0 38 -37 53 -60 25z"/>
<path d="M7637 2164 c-10 -11 3 -24 24 -24 10 0 19 7 19 15 0 15 -31 21 -43 9z"/>
<path d="M2210 1190 c0 -5 5 -10 10 -10 6 0 10 5 10 10 0 6 -4 10 -10 10 -5 0
-10 -4 -10 -10z"/>
</g>
</svg>
